<mxfile host="65bd71144e" pages="6">
    <diagram id="YD8snfaofEP7VMSQtSEn" name="mutaul-fund v2">
        <mxGraphModel dx="1347" dy="506" grid="1" gridSize="10" guides="1" tooltips="1" connect="1" arrows="1" fold="1" page="1" pageScale="1" pageWidth="1100" pageHeight="850" math="0" shadow="0">
            <root>
                <mxCell id="uWkwl_Mc1wg_5HtEWT7k-0"/>
                <mxCell id="uWkwl_Mc1wg_5HtEWT7k-1" parent="uWkwl_Mc1wg_5HtEWT7k-0"/>
                <mxCell id="dhetteNiKw-FfDdPtZA--2" value="" style="edgeStyle=none;rounded=0;orthogonalLoop=1;jettySize=auto;html=1;startArrow=classic;startFill=1;endArrow=none;endFill=0;" parent="uWkwl_Mc1wg_5HtEWT7k-1" source="dhetteNiKw-FfDdPtZA--4" target="dhetteNiKw-FfDdPtZA--17" edge="1">
                    <mxGeometry relative="1" as="geometry"/>
                </mxCell>
                <mxCell id="dhetteNiKw-FfDdPtZA--3" value="subclassOf" style="edgeLabel;html=1;align=center;verticalAlign=middle;resizable=0;points=[];" parent="dhetteNiKw-FfDdPtZA--2" vertex="1" connectable="0">
                    <mxGeometry x="-0.3298" y="2" relative="1" as="geometry">
                        <mxPoint x="-12.78" y="32.76" as="offset"/>
                    </mxGeometry>
                </mxCell>
                <mxCell id="dhetteNiKw-FfDdPtZA--4" value="Thing" style="ellipse;whiteSpace=wrap;html=1;ellipse;whiteSpace=wrap;html=1;" parent="uWkwl_Mc1wg_5HtEWT7k-1" vertex="1">
                    <mxGeometry x="480" y="260" width="120" height="60" as="geometry"/>
                </mxCell>
                <mxCell id="dhetteNiKw-FfDdPtZA--5" value="" style="edgeStyle=none;rounded=0;orthogonalLoop=1;jettySize=auto;html=1;startArrow=classic;startFill=1;endArrow=none;endFill=0;" parent="uWkwl_Mc1wg_5HtEWT7k-1" source="dhetteNiKw-FfDdPtZA--17" target="dhetteNiKw-FfDdPtZA--18" edge="1">
                    <mxGeometry relative="1" as="geometry"/>
                </mxCell>
                <mxCell id="dhetteNiKw-FfDdPtZA--6" value="subclassOf" style="edgeLabel;html=1;align=center;verticalAlign=middle;resizable=0;points=[];" parent="dhetteNiKw-FfDdPtZA--5" vertex="1" connectable="0">
                    <mxGeometry x="0.2494" y="-1" relative="1" as="geometry">
                        <mxPoint as="offset"/>
                    </mxGeometry>
                </mxCell>
                <mxCell id="dhetteNiKw-FfDdPtZA--7" value="" style="edgeStyle=none;rounded=0;orthogonalLoop=1;jettySize=auto;html=1;startArrow=classic;startFill=1;endArrow=none;endFill=0;entryX=1;entryY=0.5;entryDx=0;entryDy=0;" parent="uWkwl_Mc1wg_5HtEWT7k-1" source="dhetteNiKw-FfDdPtZA--17" target="FkE4F6yeF04PSDDuKiSC-6" edge="1">
                    <mxGeometry relative="1" as="geometry">
                        <mxPoint x="250" y="590" as="targetPoint"/>
                    </mxGeometry>
                </mxCell>
                <mxCell id="dhetteNiKw-FfDdPtZA--8" value="subclassOf" style="edgeLabel;html=1;align=center;verticalAlign=middle;resizable=0;points=[];" parent="dhetteNiKw-FfDdPtZA--7" vertex="1" connectable="0">
                    <mxGeometry x="0.2156" y="-1" relative="1" as="geometry">
                        <mxPoint as="offset"/>
                    </mxGeometry>
                </mxCell>
                <mxCell id="dhetteNiKw-FfDdPtZA--9" value="" style="edgeStyle=none;rounded=0;orthogonalLoop=1;jettySize=auto;html=1;startArrow=classic;startFill=1;endArrow=none;endFill=0;entryX=1;entryY=1;entryDx=0;entryDy=0;" parent="uWkwl_Mc1wg_5HtEWT7k-1" source="dhetteNiKw-FfDdPtZA--17" target="dhetteNiKw-FfDdPtZA--19" edge="1">
                    <mxGeometry relative="1" as="geometry">
                        <mxPoint x="258" y="398.1999999999998" as="targetPoint"/>
                    </mxGeometry>
                </mxCell>
                <mxCell id="dhetteNiKw-FfDdPtZA--10" value="subclassOff" style="edgeLabel;html=1;align=center;verticalAlign=middle;resizable=0;points=[];" parent="dhetteNiKw-FfDdPtZA--9" vertex="1" connectable="0">
                    <mxGeometry x="0.2818" y="3" relative="1" as="geometry">
                        <mxPoint as="offset"/>
                    </mxGeometry>
                </mxCell>
                <mxCell id="dhetteNiKw-FfDdPtZA--11" value="" style="edgeStyle=none;rounded=0;orthogonalLoop=1;jettySize=auto;html=1;startArrow=classic;startFill=1;endArrow=none;endFill=0;entryX=0.5;entryY=0;entryDx=0;entryDy=0;" parent="uWkwl_Mc1wg_5HtEWT7k-1" source="dhetteNiKw-FfDdPtZA--17" target="dhetteNiKw-FfDdPtZA--21" edge="1">
                    <mxGeometry relative="1" as="geometry">
                        <mxPoint x="492" y="679" as="targetPoint"/>
                    </mxGeometry>
                </mxCell>
                <mxCell id="dhetteNiKw-FfDdPtZA--12" value="subclassOf" style="edgeLabel;html=1;align=center;verticalAlign=middle;resizable=0;points=[];" parent="dhetteNiKw-FfDdPtZA--11" vertex="1" connectable="0">
                    <mxGeometry x="0.2118" y="3" relative="1" as="geometry">
                        <mxPoint as="offset"/>
                    </mxGeometry>
                </mxCell>
                <mxCell id="dhetteNiKw-FfDdPtZA--13" value="" style="edgeStyle=none;rounded=0;orthogonalLoop=1;jettySize=auto;html=1;startArrow=classic;startFill=1;endArrow=none;endFill=0;" parent="uWkwl_Mc1wg_5HtEWT7k-1" source="dhetteNiKw-FfDdPtZA--17" target="dhetteNiKw-FfDdPtZA--20" edge="1">
                    <mxGeometry relative="1" as="geometry">
                        <mxPoint x="207.76" y="679" as="targetPoint"/>
                    </mxGeometry>
                </mxCell>
                <mxCell id="dhetteNiKw-FfDdPtZA--14" value="subclassOf" style="edgeLabel;html=1;align=center;verticalAlign=middle;resizable=0;points=[];" parent="dhetteNiKw-FfDdPtZA--13" vertex="1" connectable="0">
                    <mxGeometry x="0.2815" relative="1" as="geometry">
                        <mxPoint as="offset"/>
                    </mxGeometry>
                </mxCell>
                <mxCell id="dhetteNiKw-FfDdPtZA--17" value="Asset" style="ellipse;whiteSpace=wrap;html=1;ellipse;whiteSpace=wrap;html=1;" parent="uWkwl_Mc1wg_5HtEWT7k-1" vertex="1">
                    <mxGeometry x="285" y="409" width="120" height="60" as="geometry"/>
                </mxCell>
                <mxCell id="dhetteNiKw-FfDdPtZA--18" value="debenture" style="ellipse;whiteSpace=wrap;html=1;ellipse;whiteSpace=wrap;html=1;" parent="uWkwl_Mc1wg_5HtEWT7k-1" vertex="1">
                    <mxGeometry x="30" y="250" width="120" height="60" as="geometry"/>
                </mxCell>
                <mxCell id="dhetteNiKw-FfDdPtZA--19" value="deposit" style="ellipse;whiteSpace=wrap;html=1;ellipse;whiteSpace=wrap;html=1;" parent="uWkwl_Mc1wg_5HtEWT7k-1" vertex="1">
                    <mxGeometry x="210" y="140" width="120" height="60" as="geometry"/>
                </mxCell>
                <mxCell id="dhetteNiKw-FfDdPtZA--20" value="derivative" style="ellipse;whiteSpace=wrap;html=1;ellipse;whiteSpace=wrap;html=1;" parent="uWkwl_Mc1wg_5HtEWT7k-1" vertex="1">
                    <mxGeometry x="10" y="330" width="120" height="60" as="geometry"/>
                </mxCell>
                <mxCell id="dhetteNiKw-FfDdPtZA--21" value="gold" style="ellipse;whiteSpace=wrap;html=1;ellipse;whiteSpace=wrap;html=1;" parent="uWkwl_Mc1wg_5HtEWT7k-1" vertex="1">
                    <mxGeometry x="30" y="519" width="120" height="60" as="geometry"/>
                </mxCell>
                <mxCell id="dhetteNiKw-FfDdPtZA--26" style="edgeStyle=none;rounded=0;orthogonalLoop=1;jettySize=auto;html=1;exitX=0.5;exitY=1;exitDx=0;exitDy=0;startArrow=none;startFill=0;endArrow=classic;endFill=1;" parent="uWkwl_Mc1wg_5HtEWT7k-1" edge="1">
                    <mxGeometry relative="1" as="geometry">
                        <mxPoint x="510" y="620" as="sourcePoint"/>
                        <mxPoint x="510" y="620" as="targetPoint"/>
                    </mxGeometry>
                </mxCell>
                <mxCell id="FkE4F6yeF04PSDDuKiSC-3" value="" style="edgeStyle=none;rounded=0;orthogonalLoop=1;jettySize=auto;html=1;startArrow=classic;startFill=1;endArrow=none;endFill=0;entryX=1;entryY=1;entryDx=0;entryDy=0;" parent="uWkwl_Mc1wg_5HtEWT7k-1" source="dhetteNiKw-FfDdPtZA--17" target="FkE4F6yeF04PSDDuKiSC-5" edge="1">
                    <mxGeometry relative="1" as="geometry">
                        <mxPoint x="147.3" y="449.1999999999998" as="targetPoint"/>
                        <mxPoint x="210.7049564720274" y="462.41706179124344" as="sourcePoint"/>
                    </mxGeometry>
                </mxCell>
                <mxCell id="FkE4F6yeF04PSDDuKiSC-4" value="subclassOff" style="edgeLabel;html=1;align=center;verticalAlign=middle;resizable=0;points=[];" parent="FkE4F6yeF04PSDDuKiSC-3" vertex="1" connectable="0">
                    <mxGeometry x="0.2818" y="3" relative="1" as="geometry">
                        <mxPoint as="offset"/>
                    </mxGeometry>
                </mxCell>
                <mxCell id="FkE4F6yeF04PSDDuKiSC-5" value="groverment_bond" style="ellipse;whiteSpace=wrap;html=1;ellipse;whiteSpace=wrap;html=1;" parent="uWkwl_Mc1wg_5HtEWT7k-1" vertex="1">
                    <mxGeometry x="80" y="160" width="120" height="60" as="geometry"/>
                </mxCell>
                <mxCell id="FkE4F6yeF04PSDDuKiSC-6" value="stock" style="ellipse;whiteSpace=wrap;html=1;ellipse;whiteSpace=wrap;html=1;" parent="uWkwl_Mc1wg_5HtEWT7k-1" vertex="1">
                    <mxGeometry x="20" y="425" width="120" height="60" as="geometry"/>
                </mxCell>
                <mxCell id="FkE4F6yeF04PSDDuKiSC-8" value="" style="edgeStyle=none;rounded=0;orthogonalLoop=1;jettySize=auto;html=1;startArrow=classic;startFill=1;endArrow=none;endFill=0;entryX=0.5;entryY=0;entryDx=0;entryDy=0;" parent="uWkwl_Mc1wg_5HtEWT7k-1" source="dhetteNiKw-FfDdPtZA--17" target="FkE4F6yeF04PSDDuKiSC-10" edge="1">
                    <mxGeometry relative="1" as="geometry">
                        <mxPoint x="622.16" y="679" as="targetPoint"/>
                        <mxPoint x="483.38517830134094" y="468.7167732177477" as="sourcePoint"/>
                    </mxGeometry>
                </mxCell>
                <mxCell id="FkE4F6yeF04PSDDuKiSC-9" value="subclassOf" style="edgeLabel;html=1;align=center;verticalAlign=middle;resizable=0;points=[];" parent="FkE4F6yeF04PSDDuKiSC-8" vertex="1" connectable="0">
                    <mxGeometry x="0.2118" y="3" relative="1" as="geometry">
                        <mxPoint as="offset"/>
                    </mxGeometry>
                </mxCell>
                <mxCell id="FkE4F6yeF04PSDDuKiSC-10" value="unit_trust" style="ellipse;whiteSpace=wrap;html=1;ellipse;whiteSpace=wrap;html=1;" parent="uWkwl_Mc1wg_5HtEWT7k-1" vertex="1">
                    <mxGeometry x="110" y="579" width="120" height="60" as="geometry"/>
                </mxCell>
                <mxCell id="FkE4F6yeF04PSDDuKiSC-12" value="" style="edgeStyle=none;rounded=0;orthogonalLoop=1;jettySize=auto;html=1;startArrow=classic;startFill=1;endArrow=none;endFill=0;entryX=0.5;entryY=1;entryDx=0;entryDy=0;exitX=0.5;exitY=0;exitDx=0;exitDy=0;" parent="uWkwl_Mc1wg_5HtEWT7k-1" source="dhetteNiKw-FfDdPtZA--17" target="FkE4F6yeF04PSDDuKiSC-14" edge="1">
                    <mxGeometry relative="1" as="geometry">
                        <mxPoint x="252" y="220.27999999999997" as="targetPoint"/>
                        <mxPoint x="113.22517830134097" y="9.99677321774766" as="sourcePoint"/>
                    </mxGeometry>
                </mxCell>
                <mxCell id="FkE4F6yeF04PSDDuKiSC-13" value="subclassOf" style="edgeLabel;html=1;align=center;verticalAlign=middle;resizable=0;points=[];" parent="FkE4F6yeF04PSDDuKiSC-12" vertex="1" connectable="0">
                    <mxGeometry x="0.2118" y="3" relative="1" as="geometry">
                        <mxPoint as="offset"/>
                    </mxGeometry>
                </mxCell>
                <mxCell id="FkE4F6yeF04PSDDuKiSC-14" value="warrant" style="ellipse;whiteSpace=wrap;html=1;ellipse;whiteSpace=wrap;html=1;" parent="uWkwl_Mc1wg_5HtEWT7k-1" vertex="1">
                    <mxGeometry x="350" y="169.99999999999997" width="120" height="60" as="geometry"/>
                </mxCell>
                <mxCell id="c_Odpm8SSr1flLL3GMrY-0" value="" style="edgeStyle=none;rounded=0;orthogonalLoop=1;jettySize=auto;html=1;startArrow=classic;startFill=1;endArrow=none;endFill=0;exitX=1;exitY=1;exitDx=0;exitDy=0;" parent="uWkwl_Mc1wg_5HtEWT7k-1" source="dhetteNiKw-FfDdPtZA--4" target="c_Odpm8SSr1flLL3GMrY-12" edge="1">
                    <mxGeometry relative="1" as="geometry">
                        <mxPoint x="1049.6000290787654" y="217.0837641134741" as="sourcePoint"/>
                    </mxGeometry>
                </mxCell>
                <mxCell id="c_Odpm8SSr1flLL3GMrY-1" value="subclassOf" style="edgeLabel;html=1;align=center;verticalAlign=middle;resizable=0;points=[];" parent="c_Odpm8SSr1flLL3GMrY-0" vertex="1" connectable="0">
                    <mxGeometry x="-0.3298" y="2" relative="1" as="geometry">
                        <mxPoint x="-12.78" y="32.76" as="offset"/>
                    </mxGeometry>
                </mxCell>
                <mxCell id="c_Odpm8SSr1flLL3GMrY-2" value="" style="edgeStyle=none;rounded=0;orthogonalLoop=1;jettySize=auto;html=1;startArrow=classic;startFill=1;endArrow=none;endFill=0;" parent="uWkwl_Mc1wg_5HtEWT7k-1" source="c_Odpm8SSr1flLL3GMrY-12" target="c_Odpm8SSr1flLL3GMrY-13" edge="1">
                    <mxGeometry relative="1" as="geometry"/>
                </mxCell>
                <mxCell id="c_Odpm8SSr1flLL3GMrY-3" value="subclassOf" style="edgeLabel;html=1;align=center;verticalAlign=middle;resizable=0;points=[];" parent="c_Odpm8SSr1flLL3GMrY-2" vertex="1" connectable="0">
                    <mxGeometry x="0.2494" y="-1" relative="1" as="geometry">
                        <mxPoint as="offset"/>
                    </mxGeometry>
                </mxCell>
                <mxCell id="c_Odpm8SSr1flLL3GMrY-4" value="" style="edgeStyle=none;rounded=0;orthogonalLoop=1;jettySize=auto;html=1;startArrow=classic;startFill=1;endArrow=none;endFill=0;entryX=0.5;entryY=0;entryDx=0;entryDy=0;" parent="uWkwl_Mc1wg_5HtEWT7k-1" source="c_Odpm8SSr1flLL3GMrY-12" target="c_Odpm8SSr1flLL3GMrY-21" edge="1">
                    <mxGeometry relative="1" as="geometry">
                        <mxPoint x="750.7" y="639" as="targetPoint"/>
                    </mxGeometry>
                </mxCell>
                <mxCell id="c_Odpm8SSr1flLL3GMrY-5" value="subclassOf" style="edgeLabel;html=1;align=center;verticalAlign=middle;resizable=0;points=[];" parent="c_Odpm8SSr1flLL3GMrY-4" vertex="1" connectable="0">
                    <mxGeometry x="0.2156" y="-1" relative="1" as="geometry">
                        <mxPoint as="offset"/>
                    </mxGeometry>
                </mxCell>
                <mxCell id="c_Odpm8SSr1flLL3GMrY-6" value="" style="edgeStyle=none;rounded=0;orthogonalLoop=1;jettySize=auto;html=1;startArrow=classic;startFill=1;endArrow=none;endFill=0;" parent="uWkwl_Mc1wg_5HtEWT7k-1" source="c_Odpm8SSr1flLL3GMrY-12" target="c_Odpm8SSr1flLL3GMrY-14" edge="1">
                    <mxGeometry relative="1" as="geometry">
                        <mxPoint x="758.7" y="447.1999999999998" as="targetPoint"/>
                    </mxGeometry>
                </mxCell>
                <mxCell id="c_Odpm8SSr1flLL3GMrY-7" value="subclassOff" style="edgeLabel;html=1;align=center;verticalAlign=middle;resizable=0;points=[];" parent="c_Odpm8SSr1flLL3GMrY-6" vertex="1" connectable="0">
                    <mxGeometry x="0.2818" y="3" relative="1" as="geometry">
                        <mxPoint as="offset"/>
                    </mxGeometry>
                </mxCell>
                <mxCell id="c_Odpm8SSr1flLL3GMrY-8" value="" style="edgeStyle=none;rounded=0;orthogonalLoop=1;jettySize=auto;html=1;startArrow=classic;startFill=1;endArrow=none;endFill=0;entryX=0.5;entryY=0;entryDx=0;entryDy=0;" parent="uWkwl_Mc1wg_5HtEWT7k-1" source="c_Odpm8SSr1flLL3GMrY-12" target="c_Odpm8SSr1flLL3GMrY-16" edge="1">
                    <mxGeometry relative="1" as="geometry">
                        <mxPoint x="992.7" y="728" as="targetPoint"/>
                    </mxGeometry>
                </mxCell>
                <mxCell id="c_Odpm8SSr1flLL3GMrY-9" value="subclassOf" style="edgeLabel;html=1;align=center;verticalAlign=middle;resizable=0;points=[];" parent="c_Odpm8SSr1flLL3GMrY-8" vertex="1" connectable="0">
                    <mxGeometry x="0.2118" y="3" relative="1" as="geometry">
                        <mxPoint as="offset"/>
                    </mxGeometry>
                </mxCell>
                <mxCell id="c_Odpm8SSr1flLL3GMrY-10" value="" style="edgeStyle=none;rounded=0;orthogonalLoop=1;jettySize=auto;html=1;startArrow=classic;startFill=1;endArrow=none;endFill=0;" parent="uWkwl_Mc1wg_5HtEWT7k-1" source="c_Odpm8SSr1flLL3GMrY-12" target="c_Odpm8SSr1flLL3GMrY-15" edge="1">
                    <mxGeometry relative="1" as="geometry">
                        <mxPoint x="708.46" y="728" as="targetPoint"/>
                    </mxGeometry>
                </mxCell>
                <mxCell id="c_Odpm8SSr1flLL3GMrY-11" value="subclassOf" style="edgeLabel;html=1;align=center;verticalAlign=middle;resizable=0;points=[];" parent="c_Odpm8SSr1flLL3GMrY-10" vertex="1" connectable="0">
                    <mxGeometry x="0.2815" relative="1" as="geometry">
                        <mxPoint as="offset"/>
                    </mxGeometry>
                </mxCell>
                <mxCell id="c_Odpm8SSr1flLL3GMrY-12" value="fund" style="ellipse;whiteSpace=wrap;html=1;ellipse;whiteSpace=wrap;html=1;" parent="uWkwl_Mc1wg_5HtEWT7k-1" vertex="1">
                    <mxGeometry x="650" y="370" width="120" height="60" as="geometry"/>
                </mxCell>
                <mxCell id="c_Odpm8SSr1flLL3GMrY-13" value="dividend" style="ellipse;whiteSpace=wrap;html=1;ellipse;whiteSpace=wrap;html=1;" parent="uWkwl_Mc1wg_5HtEWT7k-1" vertex="1">
                    <mxGeometry x="480" y="450" width="120" height="60" as="geometry"/>
                </mxCell>
                <mxCell id="c_Odpm8SSr1flLL3GMrY-14" value="other" style="ellipse;whiteSpace=wrap;html=1;ellipse;whiteSpace=wrap;html=1;" parent="uWkwl_Mc1wg_5HtEWT7k-1" vertex="1">
                    <mxGeometry x="780" y="680" width="120" height="60" as="geometry"/>
                </mxCell>
                <mxCell id="c_Odpm8SSr1flLL3GMrY-15" value="equity_fund" style="ellipse;whiteSpace=wrap;html=1;ellipse;whiteSpace=wrap;html=1;" parent="uWkwl_Mc1wg_5HtEWT7k-1" vertex="1">
                    <mxGeometry x="550" y="519" width="120" height="60" as="geometry"/>
                </mxCell>
                <mxCell id="c_Odpm8SSr1flLL3GMrY-16" value="mixed_fund" style="ellipse;whiteSpace=wrap;html=1;ellipse;whiteSpace=wrap;html=1;" parent="uWkwl_Mc1wg_5HtEWT7k-1" vertex="1">
                    <mxGeometry x="700" y="750" width="120" height="60" as="geometry"/>
                </mxCell>
                <mxCell id="c_Odpm8SSr1flLL3GMrY-17" style="edgeStyle=none;rounded=0;orthogonalLoop=1;jettySize=auto;html=1;exitX=0.5;exitY=1;exitDx=0;exitDy=0;startArrow=none;startFill=0;endArrow=classic;endFill=1;" parent="uWkwl_Mc1wg_5HtEWT7k-1" edge="1">
                    <mxGeometry relative="1" as="geometry">
                        <mxPoint x="1010.7" y="669" as="sourcePoint"/>
                        <mxPoint x="1010.7" y="669" as="targetPoint"/>
                    </mxGeometry>
                </mxCell>
                <mxCell id="c_Odpm8SSr1flLL3GMrY-18" value="" style="edgeStyle=none;rounded=0;orthogonalLoop=1;jettySize=auto;html=1;startArrow=classic;startFill=1;endArrow=none;endFill=0;entryX=0;entryY=0;entryDx=0;entryDy=0;" parent="uWkwl_Mc1wg_5HtEWT7k-1" source="c_Odpm8SSr1flLL3GMrY-12" target="c_Odpm8SSr1flLL3GMrY-20" edge="1">
                    <mxGeometry relative="1" as="geometry">
                        <mxPoint x="648" y="498.1999999999998" as="targetPoint"/>
                        <mxPoint x="711.4049564720274" y="511.41706179124344" as="sourcePoint"/>
                    </mxGeometry>
                </mxCell>
                <mxCell id="c_Odpm8SSr1flLL3GMrY-19" value="subclassOff" style="edgeLabel;html=1;align=center;verticalAlign=middle;resizable=0;points=[];" parent="c_Odpm8SSr1flLL3GMrY-18" vertex="1" connectable="0">
                    <mxGeometry x="0.2818" y="3" relative="1" as="geometry">
                        <mxPoint as="offset"/>
                    </mxGeometry>
                </mxCell>
                <mxCell id="c_Odpm8SSr1flLL3GMrY-20" value="alternative_investment_fund" style="ellipse;whiteSpace=wrap;html=1;ellipse;whiteSpace=wrap;html=1;" parent="uWkwl_Mc1wg_5HtEWT7k-1" vertex="1">
                    <mxGeometry x="915" y="711" width="170" height="109" as="geometry"/>
                </mxCell>
                <mxCell id="c_Odpm8SSr1flLL3GMrY-21" value="fixed_income_fund" style="ellipse;whiteSpace=wrap;html=1;ellipse;whiteSpace=wrap;html=1;" parent="uWkwl_Mc1wg_5HtEWT7k-1" vertex="1">
                    <mxGeometry x="600" y="690" width="120" height="60" as="geometry"/>
                </mxCell>
                <mxCell id="0" value="asset_symbol" style="rounded=0;whiteSpace=wrap;html=1;" vertex="1" parent="uWkwl_Mc1wg_5HtEWT7k-1">
                    <mxGeometry x="350" y="650" width="120" height="60" as="geometry"/>
                </mxCell>
                <mxCell id="1" value="asset_name" style="rounded=0;whiteSpace=wrap;html=1;" vertex="1" parent="uWkwl_Mc1wg_5HtEWT7k-1">
                    <mxGeometry x="450" y="579" width="120" height="60" as="geometry"/>
                </mxCell>
                <mxCell id="2" value="asset_id" style="rounded=0;whiteSpace=wrap;html=1;" vertex="1" parent="uWkwl_Mc1wg_5HtEWT7k-1">
                    <mxGeometry x="220" y="630" width="120" height="60" as="geometry"/>
                </mxCell>
                <mxCell id="3" value="" style="edgeStyle=none;rounded=0;orthogonalLoop=1;jettySize=auto;html=1;startArrow=classic;startFill=1;endArrow=none;endFill=0;entryX=0.5;entryY=0;entryDx=0;entryDy=0;exitX=0.5;exitY=1;exitDx=0;exitDy=0;" edge="1" parent="uWkwl_Mc1wg_5HtEWT7k-1" source="dhetteNiKw-FfDdPtZA--17" target="2">
                    <mxGeometry relative="1" as="geometry">
                        <mxPoint x="261.8" y="639" as="targetPoint"/>
                        <mxPoint x="405.00006359980927" y="524.4399491201525" as="sourcePoint"/>
                    </mxGeometry>
                </mxCell>
                <mxCell id="4" value="Domain" style="edgeLabel;html=1;align=center;verticalAlign=middle;resizable=0;points=[];" vertex="1" connectable="0" parent="3">
                    <mxGeometry x="0.2118" y="3" relative="1" as="geometry">
                        <mxPoint as="offset"/>
                    </mxGeometry>
                </mxCell>
                <mxCell id="r3yam5yUeW3kaXvQtFhB-4" value="" style="edgeStyle=none;rounded=0;orthogonalLoop=1;jettySize=auto;html=1;startArrow=classic;startFill=1;endArrow=none;endFill=0;entryX=0.5;entryY=0;entryDx=0;entryDy=0;" edge="1" parent="uWkwl_Mc1wg_5HtEWT7k-1" source="dhetteNiKw-FfDdPtZA--17" target="0">
                    <mxGeometry relative="1" as="geometry">
                        <mxPoint x="380" y="710" as="targetPoint"/>
                        <mxPoint x="435" y="529" as="sourcePoint"/>
                    </mxGeometry>
                </mxCell>
                <mxCell id="r3yam5yUeW3kaXvQtFhB-5" value="Domain" style="edgeLabel;html=1;align=center;verticalAlign=middle;resizable=0;points=[];" vertex="1" connectable="0" parent="r3yam5yUeW3kaXvQtFhB-4">
                    <mxGeometry x="0.2118" y="3" relative="1" as="geometry">
                        <mxPoint as="offset"/>
                    </mxGeometry>
                </mxCell>
                <mxCell id="r3yam5yUeW3kaXvQtFhB-6" value="" style="edgeStyle=none;rounded=0;orthogonalLoop=1;jettySize=auto;html=1;startArrow=classic;startFill=1;endArrow=none;endFill=0;entryX=0.5;entryY=0;entryDx=0;entryDy=0;exitX=1;exitY=1;exitDx=0;exitDy=0;" edge="1" parent="uWkwl_Mc1wg_5HtEWT7k-1" source="dhetteNiKw-FfDdPtZA--17" target="1">
                    <mxGeometry relative="1" as="geometry">
                        <mxPoint x="310" y="670" as="targetPoint"/>
                        <mxPoint x="365" y="489" as="sourcePoint"/>
                    </mxGeometry>
                </mxCell>
                <mxCell id="r3yam5yUeW3kaXvQtFhB-7" value="Domain" style="edgeLabel;html=1;align=center;verticalAlign=middle;resizable=0;points=[];" vertex="1" connectable="0" parent="r3yam5yUeW3kaXvQtFhB-6">
                    <mxGeometry x="0.2118" y="3" relative="1" as="geometry">
                        <mxPoint as="offset"/>
                    </mxGeometry>
                </mxCell>
                <mxCell id="r3yam5yUeW3kaXvQtFhB-8" value="string" style="ellipse;whiteSpace=wrap;html=1;ellipse;whiteSpace=wrap;html=1;" vertex="1" parent="uWkwl_Mc1wg_5HtEWT7k-1">
                    <mxGeometry x="490" y="770" width="120" height="60" as="geometry"/>
                </mxCell>
                <mxCell id="r3yam5yUeW3kaXvQtFhB-9" value="" style="edgeStyle=none;rounded=0;orthogonalLoop=1;jettySize=auto;html=1;startArrow=classic;startFill=1;endArrow=none;endFill=0;entryX=0.5;entryY=1;entryDx=0;entryDy=0;exitX=0.5;exitY=0;exitDx=0;exitDy=0;" edge="1" parent="uWkwl_Mc1wg_5HtEWT7k-1" source="r3yam5yUeW3kaXvQtFhB-8" target="1">
                    <mxGeometry relative="1" as="geometry">
                        <mxPoint x="520" y="589" as="targetPoint"/>
                        <mxPoint x="397.84437034867005" y="470.0021423277793" as="sourcePoint"/>
                    </mxGeometry>
                </mxCell>
                <mxCell id="r3yam5yUeW3kaXvQtFhB-10" value="Range" style="edgeLabel;html=1;align=center;verticalAlign=middle;resizable=0;points=[];" vertex="1" connectable="0" parent="r3yam5yUeW3kaXvQtFhB-9">
                    <mxGeometry x="0.2118" y="3" relative="1" as="geometry">
                        <mxPoint as="offset"/>
                    </mxGeometry>
                </mxCell>
                <mxCell id="r3yam5yUeW3kaXvQtFhB-11" value="string" style="ellipse;whiteSpace=wrap;html=1;ellipse;whiteSpace=wrap;html=1;" vertex="1" parent="uWkwl_Mc1wg_5HtEWT7k-1">
                    <mxGeometry x="180" y="760" width="120" height="60" as="geometry"/>
                </mxCell>
                <mxCell id="r3yam5yUeW3kaXvQtFhB-12" value="" style="edgeStyle=none;rounded=0;orthogonalLoop=1;jettySize=auto;html=1;startArrow=classic;startFill=1;endArrow=none;endFill=0;entryX=0.5;entryY=1;entryDx=0;entryDy=0;exitX=0.5;exitY=0;exitDx=0;exitDy=0;" edge="1" parent="uWkwl_Mc1wg_5HtEWT7k-1" source="r3yam5yUeW3kaXvQtFhB-11" target="2">
                    <mxGeometry relative="1" as="geometry">
                        <mxPoint x="190" y="680" as="targetPoint"/>
                        <mxPoint x="-12.155629651329946" y="471.0021423277793" as="sourcePoint"/>
                    </mxGeometry>
                </mxCell>
                <mxCell id="r3yam5yUeW3kaXvQtFhB-13" value="Range" style="edgeLabel;html=1;align=center;verticalAlign=middle;resizable=0;points=[];" vertex="1" connectable="0" parent="r3yam5yUeW3kaXvQtFhB-12">
                    <mxGeometry x="0.2118" y="3" relative="1" as="geometry">
                        <mxPoint as="offset"/>
                    </mxGeometry>
                </mxCell>
                <mxCell id="r3yam5yUeW3kaXvQtFhB-14" value="string" style="ellipse;whiteSpace=wrap;html=1;ellipse;whiteSpace=wrap;html=1;" vertex="1" parent="uWkwl_Mc1wg_5HtEWT7k-1">
                    <mxGeometry x="340" y="760" width="120" height="60" as="geometry"/>
                </mxCell>
                <mxCell id="r3yam5yUeW3kaXvQtFhB-15" value="" style="edgeStyle=none;rounded=0;orthogonalLoop=1;jettySize=auto;html=1;startArrow=classic;startFill=1;endArrow=none;endFill=0;exitX=0.5;exitY=0;exitDx=0;exitDy=0;entryX=0.5;entryY=1;entryDx=0;entryDy=0;" edge="1" parent="uWkwl_Mc1wg_5HtEWT7k-1" source="r3yam5yUeW3kaXvQtFhB-14" target="0">
                    <mxGeometry relative="1" as="geometry">
                        <mxPoint x="299.996363636364" y="720" as="targetPoint"/>
                        <mxPoint x="264.20437034867007" y="500.0021423277793" as="sourcePoint"/>
                    </mxGeometry>
                </mxCell>
                <mxCell id="r3yam5yUeW3kaXvQtFhB-16" value="Range" style="edgeLabel;html=1;align=center;verticalAlign=middle;resizable=0;points=[];" vertex="1" connectable="0" parent="r3yam5yUeW3kaXvQtFhB-15">
                    <mxGeometry x="0.2118" y="3" relative="1" as="geometry">
                        <mxPoint as="offset"/>
                    </mxGeometry>
                </mxCell>
                <mxCell id="r3yam5yUeW3kaXvQtFhB-19" value="project_class_name" style="rounded=0;whiteSpace=wrap;html=1;" vertex="1" parent="uWkwl_Mc1wg_5HtEWT7k-1">
                    <mxGeometry x="500" y="130.00000000000003" width="120" height="60" as="geometry"/>
                </mxCell>
                <mxCell id="r3yam5yUeW3kaXvQtFhB-20" value="" style="edgeStyle=none;rounded=0;orthogonalLoop=1;jettySize=auto;html=1;startArrow=classic;startFill=1;endArrow=none;endFill=0;entryX=0.5;entryY=1;entryDx=0;entryDy=0;exitX=0.5;exitY=0;exitDx=0;exitDy=0;" edge="1" parent="uWkwl_Mc1wg_5HtEWT7k-1" target="r3yam5yUeW3kaXvQtFhB-19" source="c_Odpm8SSr1flLL3GMrY-12">
                    <mxGeometry relative="1" as="geometry">
                        <mxPoint x="811.8" y="99.58000000000004" as="targetPoint"/>
                        <mxPoint x="895" y="-70.41999999999996" as="sourcePoint"/>
                    </mxGeometry>
                </mxCell>
                <mxCell id="r3yam5yUeW3kaXvQtFhB-21" value="Domain" style="edgeLabel;html=1;align=center;verticalAlign=middle;resizable=0;points=[];" vertex="1" connectable="0" parent="r3yam5yUeW3kaXvQtFhB-20">
                    <mxGeometry x="0.2118" y="3" relative="1" as="geometry">
                        <mxPoint as="offset"/>
                    </mxGeometry>
                </mxCell>
                <mxCell id="r3yam5yUeW3kaXvQtFhB-24" value="string" style="ellipse;whiteSpace=wrap;html=1;ellipse;whiteSpace=wrap;html=1;" vertex="1" parent="uWkwl_Mc1wg_5HtEWT7k-1">
                    <mxGeometry x="390" y="20.000000000000057" width="120" height="60" as="geometry"/>
                </mxCell>
                <mxCell id="r3yam5yUeW3kaXvQtFhB-25" value="" style="edgeStyle=none;rounded=0;orthogonalLoop=1;jettySize=auto;html=1;startArrow=classic;startFill=1;endArrow=none;endFill=0;entryX=0.25;entryY=0;entryDx=0;entryDy=0;exitX=0.5;exitY=1;exitDx=0;exitDy=0;" edge="1" parent="uWkwl_Mc1wg_5HtEWT7k-1" source="r3yam5yUeW3kaXvQtFhB-24" target="r3yam5yUeW3kaXvQtFhB-19">
                    <mxGeometry relative="1" as="geometry">
                        <mxPoint x="740" y="140.58000000000004" as="targetPoint"/>
                        <mxPoint x="537.84437034867" y="-68.41785767222063" as="sourcePoint"/>
                    </mxGeometry>
                </mxCell>
                <mxCell id="r3yam5yUeW3kaXvQtFhB-26" value="Range" style="edgeLabel;html=1;align=center;verticalAlign=middle;resizable=0;points=[];" vertex="1" connectable="0" parent="r3yam5yUeW3kaXvQtFhB-25">
                    <mxGeometry x="0.2118" y="3" relative="1" as="geometry">
                        <mxPoint as="offset"/>
                    </mxGeometry>
                </mxCell>
                <mxCell id="r3yam5yUeW3kaXvQtFhB-30" value="project_id" style="rounded=0;whiteSpace=wrap;html=1;" vertex="1" parent="uWkwl_Mc1wg_5HtEWT7k-1">
                    <mxGeometry x="630" y="190.00000000000003" width="120" height="60" as="geometry"/>
                </mxCell>
                <mxCell id="r3yam5yUeW3kaXvQtFhB-31" value="" style="edgeStyle=none;rounded=0;orthogonalLoop=1;jettySize=auto;html=1;startArrow=classic;startFill=1;endArrow=none;endFill=0;entryX=0.5;entryY=1;entryDx=0;entryDy=0;exitX=0.5;exitY=0;exitDx=0;exitDy=0;" edge="1" parent="uWkwl_Mc1wg_5HtEWT7k-1" target="r3yam5yUeW3kaXvQtFhB-30" source="c_Odpm8SSr1flLL3GMrY-12">
                    <mxGeometry relative="1" as="geometry">
                        <mxPoint x="1061.8" y="74.58000000000004" as="targetPoint"/>
                        <mxPoint x="960" y="345" as="sourcePoint"/>
                    </mxGeometry>
                </mxCell>
                <mxCell id="r3yam5yUeW3kaXvQtFhB-32" value="Domain" style="edgeLabel;html=1;align=center;verticalAlign=middle;resizable=0;points=[];" vertex="1" connectable="0" parent="r3yam5yUeW3kaXvQtFhB-31">
                    <mxGeometry x="0.2118" y="3" relative="1" as="geometry">
                        <mxPoint as="offset"/>
                    </mxGeometry>
                </mxCell>
                <mxCell id="r3yam5yUeW3kaXvQtFhB-33" value="string" style="ellipse;whiteSpace=wrap;html=1;ellipse;whiteSpace=wrap;html=1;" vertex="1" parent="uWkwl_Mc1wg_5HtEWT7k-1">
                    <mxGeometry x="600" y="10.000000000000057" width="120" height="60" as="geometry"/>
                </mxCell>
                <mxCell id="r3yam5yUeW3kaXvQtFhB-34" value="" style="edgeStyle=none;rounded=0;orthogonalLoop=1;jettySize=auto;html=1;startArrow=classic;startFill=1;endArrow=none;endFill=0;entryX=0.437;entryY=-0.002;entryDx=0;entryDy=0;exitX=0.5;exitY=1;exitDx=0;exitDy=0;entryPerimeter=0;" edge="1" parent="uWkwl_Mc1wg_5HtEWT7k-1" source="r3yam5yUeW3kaXvQtFhB-33" target="r3yam5yUeW3kaXvQtFhB-30">
                    <mxGeometry relative="1" as="geometry">
                        <mxPoint x="990" y="115.58000000000004" as="targetPoint"/>
                        <mxPoint x="787.84437034867" y="-93.41785767222063" as="sourcePoint"/>
                    </mxGeometry>
                </mxCell>
                <mxCell id="r3yam5yUeW3kaXvQtFhB-35" value="Range" style="edgeLabel;html=1;align=center;verticalAlign=middle;resizable=0;points=[];" vertex="1" connectable="0" parent="r3yam5yUeW3kaXvQtFhB-34">
                    <mxGeometry x="0.2118" y="3" relative="1" as="geometry">
                        <mxPoint as="offset"/>
                    </mxGeometry>
                </mxCell>
                <mxCell id="r3yam5yUeW3kaXvQtFhB-36" value="project_loss" style="rounded=0;whiteSpace=wrap;html=1;" vertex="1" parent="uWkwl_Mc1wg_5HtEWT7k-1">
                    <mxGeometry x="730" y="120.00000000000003" width="120" height="60" as="geometry"/>
                </mxCell>
                <mxCell id="r3yam5yUeW3kaXvQtFhB-37" value="" style="edgeStyle=none;rounded=0;orthogonalLoop=1;jettySize=auto;html=1;startArrow=classic;startFill=1;endArrow=none;endFill=0;entryX=0.5;entryY=1;entryDx=0;entryDy=0;exitX=0.5;exitY=0;exitDx=0;exitDy=0;" edge="1" parent="uWkwl_Mc1wg_5HtEWT7k-1" target="r3yam5yUeW3kaXvQtFhB-36" source="c_Odpm8SSr1flLL3GMrY-12">
                    <mxGeometry relative="1" as="geometry">
                        <mxPoint x="1071.8" y="84.58000000000004" as="targetPoint"/>
                        <mxPoint x="970" y="355" as="sourcePoint"/>
                    </mxGeometry>
                </mxCell>
                <mxCell id="r3yam5yUeW3kaXvQtFhB-38" value="Domain" style="edgeLabel;html=1;align=center;verticalAlign=middle;resizable=0;points=[];" vertex="1" connectable="0" parent="r3yam5yUeW3kaXvQtFhB-37">
                    <mxGeometry x="0.2118" y="3" relative="1" as="geometry">
                        <mxPoint x="-5.63" y="16.1" as="offset"/>
                    </mxGeometry>
                </mxCell>
                <mxCell id="r3yam5yUeW3kaXvQtFhB-39" value="decimal&lt;span style=&quot;color: rgba(0 , 0 , 0 , 0) ; font-family: monospace ; font-size: 0px&quot;&gt;%3CmxGraphModel%3E%3Croot%3E%3CmxCell%20id%3D%220%22%2F%3E%3CmxCell%20id%3D%221%22%20parent%3D%220%22%2F%3E%3CmxCell%20id%3D%222%22%20value%3D%22project_class_name%22%20style%3D%22rounded%3D0%3BwhiteSpace%3Dwrap%3Bhtml%3D1%3B%22%20vertex%3D%221%22%20parent%3D%221%22%3E%3CmxGeometry%20x%3D%22870%22%20y%3D%22185.00000000000003%22%20width%3D%22120%22%20height%3D%2260%22%20as%3D%22geometry%22%2F%3E%3C%2FmxCell%3E%3CmxCell%20id%3D%223%22%20value%3D%22%22%20style%3D%22edgeStyle%3Dnone%3Brounded%3D0%3BorthogonalLoop%3D1%3BjettySize%3Dauto%3Bhtml%3D1%3BstartArrow%3Dclassic%3BstartFill%3D1%3BendArrow%3Dnone%3BendFill%3D0%3BentryX%3D0.5%3BentryY%3D1%3BentryDx%3D0%3BentryDy%3D0%3BexitX%3D0.5%3BexitY%3D0%3BexitDx%3D0%3BexitDy%3D0%3B%22%20edge%3D%221%22%20target%3D%222%22%20parent%3D%221%22%3E%3CmxGeometry%20relative%3D%221%22%20as%3D%22geometry%22%3E%3CmxPoint%20x%3D%221061.8%22%20y%3D%2274.58000000000004%22%20as%3D%22targetPoint%22%2F%3E%3CmxPoint%20x%3D%22960%22%20y%3D%22345%22%20as%3D%22sourcePoint%22%2F%3E%3C%2FmxGeometry%3E%3C%2FmxCell%3E%3CmxCell%20id%3D%224%22%20value%3D%22Domain%22%20style%3D%22edgeLabel%3Bhtml%3D1%3Balign%3Dcenter%3BverticalAlign%3Dmiddle%3Bresizable%3D0%3Bpoints%3D%5B%5D%3B%22%20vertex%3D%221%22%20connectable%3D%220%22%20parent%3D%223%22%3E%3CmxGeometry%20x%3D%220.2118%22%20y%3D%223%22%20relative%3D%221%22%20as%3D%22geometry%22%3E%3CmxPoint%20as%3D%22offset%22%2F%3E%3C%2FmxGeometry%3E%3C%2FmxCell%3E%3CmxCell%20id%3D%225%22%20value%3D%22string%22%20style%3D%22ellipse%3BwhiteSpace%3Dwrap%3Bhtml%3D1%3Bellipse%3BwhiteSpace%3Dwrap%3Bhtml%3D1%3B%22%20vertex%3D%221%22%20parent%3D%221%22%3E%3CmxGeometry%20x%3D%22820%22%20y%3D%2235.00000000000006%22%20width%3D%22120%22%20height%3D%2260%22%20as%3D%22geometry%22%2F%3E%3C%2FmxCell%3E%3CmxCell%20id%3D%226%22%20value%3D%22%22%20style%3D%22edgeStyle%3Dnone%3Brounded%3D0%3BorthogonalLoop%3D1%3BjettySize%3Dauto%3Bhtml%3D1%3BstartArrow%3Dclassic%3BstartFill%3D1%3BendArrow%3Dnone%3BendFill%3D0%3BentryX%3D0.437%3BentryY%3D-0.002%3BentryDx%3D0%3BentryDy%3D0%3BexitX%3D0.5%3BexitY%3D1%3BexitDx%3D0%3BexitDy%3D0%3BentryPerimeter%3D0%3B%22%20edge%3D%221%22%20source%3D%225%22%20target%3D%222%22%20parent%3D%221%22%3E%3CmxGeometry%20relative%3D%221%22%20as%3D%22geometry%22%3E%3CmxPoint%20x%3D%22990%22%20y%3D%22115.58000000000004%22%20as%3D%22targetPoint%22%2F%3E%3CmxPoint%20x%3D%22787.84437034867%22%20y%3D%22-93.41785767222063%22%20as%3D%22sourcePoint%22%2F%3E%3C%2FmxGeometry%3E%3C%2FmxCell%3E%3CmxCell%20id%3D%227%22%20value%3D%22Range%22%20style%3D%22edgeLabel%3Bhtml%3D1%3Balign%3Dcenter%3BverticalAlign%3Dmiddle%3Bresizable%3D0%3Bpoints%3D%5B%5D%3B%22%20vertex%3D%221%22%20connectable%3D%220%22%20parent%3D%226%22%3E%3CmxGeometry%20x%3D%220.2118%22%20y%3D%223%22%20relative%3D%221%22%20as%3D%22geometry%22%3E%3CmxPoint%20as%3D%22offset%22%2F%3E%3C%2FmxGeometry%3E%3C%2FmxCell%3E%3C%2Froot%3E%3C%2FmxGraphModel%3E&lt;/span&gt;" style="ellipse;whiteSpace=wrap;html=1;ellipse;whiteSpace=wrap;html=1;" vertex="1" parent="uWkwl_Mc1wg_5HtEWT7k-1">
                    <mxGeometry x="770" y="20.000000000000057" width="120" height="60" as="geometry"/>
                </mxCell>
                <mxCell id="r3yam5yUeW3kaXvQtFhB-40" value="" style="edgeStyle=none;rounded=0;orthogonalLoop=1;jettySize=auto;html=1;startArrow=classic;startFill=1;endArrow=none;endFill=0;entryX=0.75;entryY=0;entryDx=0;entryDy=0;exitX=0.5;exitY=1;exitDx=0;exitDy=0;" edge="1" parent="uWkwl_Mc1wg_5HtEWT7k-1" source="r3yam5yUeW3kaXvQtFhB-39" target="r3yam5yUeW3kaXvQtFhB-36">
                    <mxGeometry relative="1" as="geometry">
                        <mxPoint x="1000" y="125.58000000000004" as="targetPoint"/>
                        <mxPoint x="797.84437034867" y="-83.41785767222063" as="sourcePoint"/>
                    </mxGeometry>
                </mxCell>
                <mxCell id="r3yam5yUeW3kaXvQtFhB-41" value="Range" style="edgeLabel;html=1;align=center;verticalAlign=middle;resizable=0;points=[];" vertex="1" connectable="0" parent="r3yam5yUeW3kaXvQtFhB-40">
                    <mxGeometry x="0.2118" y="3" relative="1" as="geometry">
                        <mxPoint as="offset"/>
                    </mxGeometry>
                </mxCell>
                <mxCell id="r3yam5yUeW3kaXvQtFhB-42" value="project_name" style="rounded=0;whiteSpace=wrap;html=1;" vertex="1" parent="uWkwl_Mc1wg_5HtEWT7k-1">
                    <mxGeometry x="790" y="220.00000000000003" width="120" height="60" as="geometry"/>
                </mxCell>
                <mxCell id="r3yam5yUeW3kaXvQtFhB-43" value="" style="edgeStyle=none;rounded=0;orthogonalLoop=1;jettySize=auto;html=1;startArrow=classic;startFill=1;endArrow=none;endFill=0;entryX=0.5;entryY=1;entryDx=0;entryDy=0;exitX=1;exitY=0;exitDx=0;exitDy=0;" edge="1" parent="uWkwl_Mc1wg_5HtEWT7k-1" target="r3yam5yUeW3kaXvQtFhB-42" source="c_Odpm8SSr1flLL3GMrY-12">
                    <mxGeometry relative="1" as="geometry">
                        <mxPoint x="1251.8" y="134.58000000000004" as="targetPoint"/>
                        <mxPoint x="1150" y="405" as="sourcePoint"/>
                    </mxGeometry>
                </mxCell>
                <mxCell id="r3yam5yUeW3kaXvQtFhB-44" value="Domain" style="edgeLabel;html=1;align=center;verticalAlign=middle;resizable=0;points=[];" vertex="1" connectable="0" parent="r3yam5yUeW3kaXvQtFhB-43">
                    <mxGeometry x="0.2118" y="3" relative="1" as="geometry">
                        <mxPoint as="offset"/>
                    </mxGeometry>
                </mxCell>
                <mxCell id="r3yam5yUeW3kaXvQtFhB-45" value="string" style="ellipse;whiteSpace=wrap;html=1;ellipse;whiteSpace=wrap;html=1;" vertex="1" parent="uWkwl_Mc1wg_5HtEWT7k-1">
                    <mxGeometry x="905" y="20.000000000000057" width="120" height="60" as="geometry"/>
                </mxCell>
                <mxCell id="r3yam5yUeW3kaXvQtFhB-46" value="" style="edgeStyle=none;rounded=0;orthogonalLoop=1;jettySize=auto;html=1;startArrow=classic;startFill=1;endArrow=none;endFill=0;entryX=0.437;entryY=-0.002;entryDx=0;entryDy=0;exitX=0.5;exitY=1;exitDx=0;exitDy=0;entryPerimeter=0;" edge="1" parent="uWkwl_Mc1wg_5HtEWT7k-1" source="r3yam5yUeW3kaXvQtFhB-45" target="r3yam5yUeW3kaXvQtFhB-42">
                    <mxGeometry relative="1" as="geometry">
                        <mxPoint x="1180" y="175.58000000000004" as="targetPoint"/>
                        <mxPoint x="977.84437034867" y="-33.417857672220634" as="sourcePoint"/>
                    </mxGeometry>
                </mxCell>
                <mxCell id="r3yam5yUeW3kaXvQtFhB-47" value="Range" style="edgeLabel;html=1;align=center;verticalAlign=middle;resizable=0;points=[];" vertex="1" connectable="0" parent="r3yam5yUeW3kaXvQtFhB-46">
                    <mxGeometry x="0.2118" y="3" relative="1" as="geometry">
                        <mxPoint as="offset"/>
                    </mxGeometry>
                </mxCell>
                <mxCell id="r3yam5yUeW3kaXvQtFhB-48" value="project_profit" style="rounded=0;whiteSpace=wrap;html=1;" vertex="1" parent="uWkwl_Mc1wg_5HtEWT7k-1">
                    <mxGeometry x="869.9999999999999" y="290" width="120" height="60" as="geometry"/>
                </mxCell>
                <mxCell id="r3yam5yUeW3kaXvQtFhB-49" value="" style="edgeStyle=none;rounded=0;orthogonalLoop=1;jettySize=auto;html=1;startArrow=classic;startFill=1;endArrow=none;endFill=0;entryX=0;entryY=0.75;entryDx=0;entryDy=0;" edge="1" parent="uWkwl_Mc1wg_5HtEWT7k-1" target="r3yam5yUeW3kaXvQtFhB-48">
                    <mxGeometry relative="1" as="geometry">
                        <mxPoint x="1238.96" y="169.58000000000004" as="targetPoint"/>
                        <mxPoint x="760" y="380" as="sourcePoint"/>
                    </mxGeometry>
                </mxCell>
                <mxCell id="r3yam5yUeW3kaXvQtFhB-50" value="Domain" style="edgeLabel;html=1;align=center;verticalAlign=middle;resizable=0;points=[];" vertex="1" connectable="0" parent="r3yam5yUeW3kaXvQtFhB-49">
                    <mxGeometry x="0.2118" y="3" relative="1" as="geometry">
                        <mxPoint as="offset"/>
                    </mxGeometry>
                </mxCell>
                <mxCell id="r3yam5yUeW3kaXvQtFhB-51" value="decimal" style="ellipse;whiteSpace=wrap;html=1;ellipse;whiteSpace=wrap;html=1;" vertex="1" parent="uWkwl_Mc1wg_5HtEWT7k-1">
                    <mxGeometry x="940" y="120.00000000000006" width="120" height="60" as="geometry"/>
                </mxCell>
                <mxCell id="r3yam5yUeW3kaXvQtFhB-52" value="" style="edgeStyle=none;rounded=0;orthogonalLoop=1;jettySize=auto;html=1;startArrow=classic;startFill=1;endArrow=none;endFill=0;entryX=0.437;entryY=-0.002;entryDx=0;entryDy=0;exitX=0.5;exitY=1;exitDx=0;exitDy=0;entryPerimeter=0;" edge="1" parent="uWkwl_Mc1wg_5HtEWT7k-1" source="r3yam5yUeW3kaXvQtFhB-51" target="r3yam5yUeW3kaXvQtFhB-48">
                    <mxGeometry relative="1" as="geometry">
                        <mxPoint x="1167.1599999999999" y="210.58000000000004" as="targetPoint"/>
                        <mxPoint x="965.00437034867" y="1.5821423277793656" as="sourcePoint"/>
                    </mxGeometry>
                </mxCell>
                <mxCell id="r3yam5yUeW3kaXvQtFhB-53" value="Range" style="edgeLabel;html=1;align=center;verticalAlign=middle;resizable=0;points=[];" vertex="1" connectable="0" parent="r3yam5yUeW3kaXvQtFhB-52">
                    <mxGeometry x="0.2118" y="3" relative="1" as="geometry">
                        <mxPoint as="offset"/>
                    </mxGeometry>
                </mxCell>
                <mxCell id="r3yam5yUeW3kaXvQtFhB-54" value="project_sd" style="rounded=0;whiteSpace=wrap;html=1;" vertex="1" parent="uWkwl_Mc1wg_5HtEWT7k-1">
                    <mxGeometry x="880" y="370" width="120" height="60" as="geometry"/>
                </mxCell>
                <mxCell id="r3yam5yUeW3kaXvQtFhB-55" value="" style="edgeStyle=none;rounded=0;orthogonalLoop=1;jettySize=auto;html=1;startArrow=classic;startFill=1;endArrow=none;endFill=0;entryX=0;entryY=0.5;entryDx=0;entryDy=0;exitX=1;exitY=0.5;exitDx=0;exitDy=0;" edge="1" parent="uWkwl_Mc1wg_5HtEWT7k-1" target="r3yam5yUeW3kaXvQtFhB-54" source="c_Odpm8SSr1flLL3GMrY-12">
                    <mxGeometry relative="1" as="geometry">
                        <mxPoint x="1101.8" y="409.58000000000004" as="targetPoint"/>
                        <mxPoint x="1000" y="680" as="sourcePoint"/>
                    </mxGeometry>
                </mxCell>
                <mxCell id="r3yam5yUeW3kaXvQtFhB-56" value="Domain" style="edgeLabel;html=1;align=center;verticalAlign=middle;resizable=0;points=[];" vertex="1" connectable="0" parent="r3yam5yUeW3kaXvQtFhB-55">
                    <mxGeometry x="0.2118" y="3" relative="1" as="geometry">
                        <mxPoint as="offset"/>
                    </mxGeometry>
                </mxCell>
                <mxCell id="r3yam5yUeW3kaXvQtFhB-57" value="decimal" style="ellipse;whiteSpace=wrap;html=1;ellipse;whiteSpace=wrap;html=1;" vertex="1" parent="uWkwl_Mc1wg_5HtEWT7k-1">
                    <mxGeometry x="960" y="459" width="120" height="60" as="geometry"/>
                </mxCell>
                <mxCell id="r3yam5yUeW3kaXvQtFhB-58" value="" style="edgeStyle=none;rounded=0;orthogonalLoop=1;jettySize=auto;html=1;startArrow=classic;startFill=1;endArrow=none;endFill=0;entryX=0.75;entryY=1;entryDx=0;entryDy=0;exitX=0.5;exitY=0;exitDx=0;exitDy=0;" edge="1" parent="uWkwl_Mc1wg_5HtEWT7k-1" source="r3yam5yUeW3kaXvQtFhB-57" target="r3yam5yUeW3kaXvQtFhB-54">
                    <mxGeometry relative="1" as="geometry">
                        <mxPoint x="1030" y="450.58000000000004" as="targetPoint"/>
                        <mxPoint x="827.84437034867" y="241.58214232777937" as="sourcePoint"/>
                    </mxGeometry>
                </mxCell>
                <mxCell id="r3yam5yUeW3kaXvQtFhB-59" value="Range" style="edgeLabel;html=1;align=center;verticalAlign=middle;resizable=0;points=[];" vertex="1" connectable="0" parent="r3yam5yUeW3kaXvQtFhB-58">
                    <mxGeometry x="0.2118" y="3" relative="1" as="geometry">
                        <mxPoint as="offset"/>
                    </mxGeometry>
                </mxCell>
                <mxCell id="r3yam5yUeW3kaXvQtFhB-60" value="risk_rate" style="rounded=0;whiteSpace=wrap;html=1;" vertex="1" parent="uWkwl_Mc1wg_5HtEWT7k-1">
                    <mxGeometry x="850" y="510" width="120" height="60" as="geometry"/>
                </mxCell>
                <mxCell id="r3yam5yUeW3kaXvQtFhB-61" value="" style="edgeStyle=none;rounded=0;orthogonalLoop=1;jettySize=auto;html=1;startArrow=classic;startFill=1;endArrow=none;endFill=0;entryX=0.5;entryY=0;entryDx=0;entryDy=0;exitX=1;exitY=1;exitDx=0;exitDy=0;" edge="1" parent="uWkwl_Mc1wg_5HtEWT7k-1" target="r3yam5yUeW3kaXvQtFhB-60" source="c_Odpm8SSr1flLL3GMrY-12">
                    <mxGeometry relative="1" as="geometry">
                        <mxPoint x="1111.8" y="469.58000000000004" as="targetPoint"/>
                        <mxPoint x="1010" y="740" as="sourcePoint"/>
                    </mxGeometry>
                </mxCell>
                <mxCell id="r3yam5yUeW3kaXvQtFhB-62" value="Domain" style="edgeLabel;html=1;align=center;verticalAlign=middle;resizable=0;points=[];" vertex="1" connectable="0" parent="r3yam5yUeW3kaXvQtFhB-61">
                    <mxGeometry x="0.2118" y="3" relative="1" as="geometry">
                        <mxPoint as="offset"/>
                    </mxGeometry>
                </mxCell>
                <mxCell id="r3yam5yUeW3kaXvQtFhB-63" value="integer" style="ellipse;whiteSpace=wrap;html=1;ellipse;whiteSpace=wrap;html=1;" vertex="1" parent="uWkwl_Mc1wg_5HtEWT7k-1">
                    <mxGeometry x="960" y="600" width="120" height="60" as="geometry"/>
                </mxCell>
                <mxCell id="r3yam5yUeW3kaXvQtFhB-64" value="" style="edgeStyle=none;rounded=0;orthogonalLoop=1;jettySize=auto;html=1;startArrow=classic;startFill=1;endArrow=none;endFill=0;entryX=0.75;entryY=1;entryDx=0;entryDy=0;" edge="1" parent="uWkwl_Mc1wg_5HtEWT7k-1" source="r3yam5yUeW3kaXvQtFhB-63" target="r3yam5yUeW3kaXvQtFhB-60">
                    <mxGeometry relative="1" as="geometry">
                        <mxPoint x="1040" y="510.58000000000004" as="targetPoint"/>
                        <mxPoint x="1030" y="670" as="sourcePoint"/>
                    </mxGeometry>
                </mxCell>
                <mxCell id="r3yam5yUeW3kaXvQtFhB-65" value="Range" style="edgeLabel;html=1;align=center;verticalAlign=middle;resizable=0;points=[];" vertex="1" connectable="0" parent="r3yam5yUeW3kaXvQtFhB-64">
                    <mxGeometry x="0.2118" y="3" relative="1" as="geometry">
                        <mxPoint as="offset"/>
                    </mxGeometry>
                </mxCell>
            </root>
        </mxGraphModel>
    </diagram>
    <diagram id="pNJxuBg1-X390WHa1x9L" name="Example Data">
        <mxGraphModel dx="2799" dy="430" grid="1" gridSize="10" guides="1" tooltips="1" connect="1" arrows="1" fold="1" page="1" pageScale="1" pageWidth="827" pageHeight="1169" math="0" shadow="0">
            <root>
                <mxCell id="hxNx-i2qnly7g-_exkPQ-0"/>
                <mxCell id="hxNx-i2qnly7g-_exkPQ-1" parent="hxNx-i2qnly7g-_exkPQ-0"/>
                <mxCell id="hxNx-i2qnly7g-_exkPQ-38" value="" style="edgeStyle=none;rounded=0;orthogonalLoop=1;jettySize=auto;html=1;" parent="hxNx-i2qnly7g-_exkPQ-1" edge="1">
                    <mxGeometry relative="1" as="geometry">
                        <mxPoint x="423.282011773508" y="346.7179882264918" as="targetPoint"/>
                    </mxGeometry>
                </mxCell>
                <mxCell id="hxNx-i2qnly7g-_exkPQ-40" value="" style="edgeStyle=none;rounded=0;orthogonalLoop=1;jettySize=auto;html=1;" parent="hxNx-i2qnly7g-_exkPQ-1" edge="1">
                    <mxGeometry relative="1" as="geometry">
                        <mxPoint x="550" y="340" as="targetPoint"/>
                    </mxGeometry>
                </mxCell>
                <mxCell id="hxNx-i2qnly7g-_exkPQ-41" style="edgeStyle=none;rounded=0;orthogonalLoop=1;jettySize=auto;html=1;" parent="hxNx-i2qnly7g-_exkPQ-1" edge="1">
                    <mxGeometry relative="1" as="geometry">
                        <mxPoint x="668.2898878143928" y="346.0427145099011" as="targetPoint"/>
                    </mxGeometry>
                </mxCell>
                <mxCell id="2" style="rounded=0;orthogonalLoop=1;jettySize=auto;html=1;" parent="hxNx-i2qnly7g-_exkPQ-1" source="0" target="59" edge="1">
                    <mxGeometry relative="1" as="geometry">
                        <mxPoint x="-1314" y="430" as="targetPoint"/>
                    </mxGeometry>
                </mxCell>
                <mxCell id="3" value="Invest" style="edgeLabel;html=1;align=center;verticalAlign=middle;resizable=0;points=[];" parent="2" vertex="1" connectable="0">
                    <mxGeometry x="-0.3249" relative="1" as="geometry">
                        <mxPoint x="-26.84" y="-6.180000000000001" as="offset"/>
                    </mxGeometry>
                </mxCell>
                <mxCell id="8" value="" style="edgeStyle=none;rounded=0;orthogonalLoop=1;jettySize=auto;html=1;startArrow=classic;startFill=1;endArrow=none;endFill=0;" parent="hxNx-i2qnly7g-_exkPQ-1" source="0" target="7" edge="1">
                    <mxGeometry relative="1" as="geometry"/>
                </mxCell>
                <mxCell id="9" value="Manage" style="edgeLabel;html=1;align=center;verticalAlign=middle;resizable=0;points=[];" parent="8" vertex="1" connectable="0">
                    <mxGeometry x="-0.3375" y="3" relative="1" as="geometry">
                        <mxPoint x="13.329999999999998" y="3" as="offset"/>
                    </mxGeometry>
                </mxCell>
                <mxCell id="48" value="" style="edgeStyle=none;rounded=0;orthogonalLoop=1;jettySize=auto;html=1;" parent="hxNx-i2qnly7g-_exkPQ-1" source="0" target="47" edge="1">
                    <mxGeometry relative="1" as="geometry"/>
                </mxCell>
                <mxCell id="53" value="Name" style="edgeLabel;html=1;align=center;verticalAlign=middle;resizable=0;points=[];" parent="48" vertex="1" connectable="0">
                    <mxGeometry x="-0.1844" y="-1" relative="1" as="geometry">
                        <mxPoint as="offset"/>
                    </mxGeometry>
                </mxCell>
                <mxCell id="52" value="" style="edgeStyle=none;rounded=0;orthogonalLoop=1;jettySize=auto;html=1;" parent="hxNx-i2qnly7g-_exkPQ-1" source="0" target="51" edge="1">
                    <mxGeometry relative="1" as="geometry"/>
                </mxCell>
                <mxCell id="54" value="Symbol" style="edgeLabel;html=1;align=center;verticalAlign=middle;resizable=0;points=[];" parent="52" vertex="1" connectable="0">
                    <mxGeometry x="-0.396" y="2" relative="1" as="geometry">
                        <mxPoint as="offset"/>
                    </mxGeometry>
                </mxCell>
                <mxCell id="zQSu6dJ-XLiglkoiDzKP-73" style="edgeStyle=none;rounded=0;orthogonalLoop=1;jettySize=auto;html=1;entryX=0;entryY=0.5;entryDx=0;entryDy=0;" parent="hxNx-i2qnly7g-_exkPQ-1" source="0" target="8GLNLuJ4QE0qdc3_PFjX-70" edge="1">
                    <mxGeometry relative="1" as="geometry"/>
                </mxCell>
                <mxCell id="zQSu6dJ-XLiglkoiDzKP-74" value="Type" style="edgeLabel;html=1;align=center;verticalAlign=middle;resizable=0;points=[];" parent="zQSu6dJ-XLiglkoiDzKP-73" vertex="1" connectable="0">
                    <mxGeometry x="0.371" y="-1" relative="1" as="geometry">
                        <mxPoint as="offset"/>
                    </mxGeometry>
                </mxCell>
                <mxCell id="0" value="SCBSET50-P" style="ellipse;whiteSpace=wrap;html=1;" parent="hxNx-i2qnly7g-_exkPQ-1" vertex="1">
                    <mxGeometry x="-1467" y="490" width="120" height="80" as="geometry"/>
                </mxCell>
                <mxCell id="5" style="edgeStyle=none;rounded=0;orthogonalLoop=1;jettySize=auto;html=1;" parent="hxNx-i2qnly7g-_exkPQ-1" source="1" target="4" edge="1">
                    <mxGeometry relative="1" as="geometry"/>
                </mxCell>
                <mxCell id="6" value="Type" style="edgeLabel;html=1;align=center;verticalAlign=middle;resizable=0;points=[];" parent="5" vertex="1" connectable="0">
                    <mxGeometry x="-0.154" relative="1" as="geometry">
                        <mxPoint as="offset"/>
                    </mxGeometry>
                </mxCell>
                <mxCell id="24" value="" style="edgeStyle=none;rounded=0;orthogonalLoop=1;jettySize=auto;html=1;" parent="hxNx-i2qnly7g-_exkPQ-1" source="1" target="23" edge="1">
                    <mxGeometry relative="1" as="geometry"/>
                </mxCell>
                <mxCell id="27" value="Symbol" style="edgeLabel;html=1;align=center;verticalAlign=middle;resizable=0;points=[];" parent="24" vertex="1" connectable="0">
                    <mxGeometry x="-0.4149" relative="1" as="geometry">
                        <mxPoint x="19.7" y="7" as="offset"/>
                    </mxGeometry>
                </mxCell>
                <mxCell id="26" value="" style="edgeStyle=none;rounded=0;orthogonalLoop=1;jettySize=auto;html=1;" parent="hxNx-i2qnly7g-_exkPQ-1" source="1" target="25" edge="1">
                    <mxGeometry relative="1" as="geometry"/>
                </mxCell>
                <mxCell id="28" value="Name" style="edgeLabel;html=1;align=center;verticalAlign=middle;resizable=0;points=[];" parent="26" vertex="1" connectable="0">
                    <mxGeometry x="-0.3344" y="2" relative="1" as="geometry">
                        <mxPoint as="offset"/>
                    </mxGeometry>
                </mxCell>
                <mxCell id="1" value="PTT Stock" style="ellipse;whiteSpace=wrap;html=1;" parent="hxNx-i2qnly7g-_exkPQ-1" vertex="1">
                    <mxGeometry x="-1307" y="765" width="120" height="80" as="geometry"/>
                </mxCell>
                <mxCell id="4" value="Stock" style="ellipse;whiteSpace=wrap;html=1;" parent="hxNx-i2qnly7g-_exkPQ-1" vertex="1">
                    <mxGeometry x="-1517" y="920" width="120" height="80" as="geometry"/>
                </mxCell>
                <mxCell id="7" value="SCB" style="ellipse;whiteSpace=wrap;html=1;" parent="hxNx-i2qnly7g-_exkPQ-1" vertex="1">
                    <mxGeometry x="-1277" y="545" width="120" height="80" as="geometry"/>
                </mxCell>
                <mxCell id="23" value="PTT (string)" style="ellipse;whiteSpace=wrap;html=1;" parent="hxNx-i2qnly7g-_exkPQ-1" vertex="1">
                    <mxGeometry x="-1224" y="940" width="120" height="80" as="geometry"/>
                </mxCell>
                <mxCell id="25" value="Petroriam Thai Somting (string)" style="ellipse;whiteSpace=wrap;html=1;" parent="hxNx-i2qnly7g-_exkPQ-1" vertex="1">
                    <mxGeometry x="-1368" y="940" width="120" height="80" as="geometry"/>
                </mxCell>
                <mxCell id="32" style="edgeStyle=none;rounded=0;orthogonalLoop=1;jettySize=auto;html=1;entryX=0.922;entryY=0.788;entryDx=0;entryDy=0;entryPerimeter=0;" parent="hxNx-i2qnly7g-_exkPQ-1" source="31" target="1" edge="1">
                    <mxGeometry relative="1" as="geometry"/>
                </mxCell>
                <mxCell id="33" value="Invest" style="edgeLabel;html=1;align=center;verticalAlign=middle;resizable=0;points=[];" parent="32" vertex="1" connectable="0">
                    <mxGeometry x="-0.1286" y="-2" relative="1" as="geometry">
                        <mxPoint x="-10.72" y="-12.04" as="offset"/>
                    </mxGeometry>
                </mxCell>
                <mxCell id="31" value="BLSET50" style="ellipse;whiteSpace=wrap;html=1;" parent="hxNx-i2qnly7g-_exkPQ-1" vertex="1">
                    <mxGeometry x="-1067" y="930" width="120" height="80" as="geometry"/>
                </mxCell>
                <mxCell id="47" value="SCB SET INDEX 50" style="ellipse;whiteSpace=wrap;html=1;" parent="hxNx-i2qnly7g-_exkPQ-1" vertex="1">
                    <mxGeometry x="-1503" y="360" width="120" height="80" as="geometry"/>
                </mxCell>
                <mxCell id="51" value="SCBSET50-P" style="ellipse;whiteSpace=wrap;html=1;" parent="hxNx-i2qnly7g-_exkPQ-1" vertex="1">
                    <mxGeometry x="-1637" y="400" width="120" height="80" as="geometry"/>
                </mxCell>
                <mxCell id="60" value="" style="edgeStyle=none;rounded=0;orthogonalLoop=1;jettySize=auto;html=1;" parent="hxNx-i2qnly7g-_exkPQ-1" source="59" target="1" edge="1">
                    <mxGeometry relative="1" as="geometry"/>
                </mxCell>
                <mxCell id="63" value="InvestTo" style="edgeLabel;html=1;align=center;verticalAlign=middle;resizable=0;points=[];" parent="60" vertex="1" connectable="0">
                    <mxGeometry x="-0.3204" relative="1" as="geometry">
                        <mxPoint x="-13.91" y="-1.52" as="offset"/>
                    </mxGeometry>
                </mxCell>
                <mxCell id="62" value="" style="edgeStyle=none;rounded=0;orthogonalLoop=1;jettySize=auto;html=1;" parent="hxNx-i2qnly7g-_exkPQ-1" source="59" target="61" edge="1">
                    <mxGeometry relative="1" as="geometry"/>
                </mxCell>
                <mxCell id="59" value="SCBSET50-P-PTT" style="ellipse;whiteSpace=wrap;html=1;" parent="hxNx-i2qnly7g-_exkPQ-1" vertex="1">
                    <mxGeometry x="-1577" y="625" width="120" height="80" as="geometry"/>
                </mxCell>
                <mxCell id="61" value="0.0977 (double)" style="ellipse;whiteSpace=wrap;html=1;" parent="hxNx-i2qnly7g-_exkPQ-1" vertex="1">
                    <mxGeometry x="-1617" y="825" width="120" height="80" as="geometry"/>
                </mxCell>
                <mxCell id="8GLNLuJ4QE0qdc3_PFjX-71" style="rounded=0;orthogonalLoop=1;jettySize=auto;html=1;" parent="hxNx-i2qnly7g-_exkPQ-1" source="8GLNLuJ4QE0qdc3_PFjX-70" target="8GLNLuJ4QE0qdc3_PFjX-72" edge="1">
                    <mxGeometry relative="1" as="geometry">
                        <mxPoint x="-1474.0000000000002" y="210" as="targetPoint"/>
                    </mxGeometry>
                </mxCell>
                <mxCell id="8GLNLuJ4QE0qdc3_PFjX-75" value="" style="rounded=0;orthogonalLoop=1;jettySize=auto;html=1;" parent="hxNx-i2qnly7g-_exkPQ-1" source="8GLNLuJ4QE0qdc3_PFjX-70" target="8GLNLuJ4QE0qdc3_PFjX-74" edge="1">
                    <mxGeometry relative="1" as="geometry"/>
                </mxCell>
                <mxCell id="zQSu6dJ-XLiglkoiDzKP-71" value="" style="rounded=0;orthogonalLoop=1;jettySize=auto;html=1;" parent="hxNx-i2qnly7g-_exkPQ-1" source="8GLNLuJ4QE0qdc3_PFjX-70" target="zQSu6dJ-XLiglkoiDzKP-70" edge="1">
                    <mxGeometry relative="1" as="geometry"/>
                </mxCell>
                <mxCell id="8GLNLuJ4QE0qdc3_PFjX-70" value="Equity Fund" style="ellipse;whiteSpace=wrap;html=1;" parent="hxNx-i2qnly7g-_exkPQ-1" vertex="1">
                    <mxGeometry x="-1297" y="310" width="120" height="80" as="geometry"/>
                </mxCell>
                <mxCell id="8GLNLuJ4QE0qdc3_PFjX-72" value="Loss" style="ellipse;whiteSpace=wrap;html=1;" parent="hxNx-i2qnly7g-_exkPQ-1" vertex="1">
                    <mxGeometry x="-1167.0000000000002" y="70" width="120" height="80" as="geometry"/>
                </mxCell>
                <mxCell id="8GLNLuJ4QE0qdc3_PFjX-74" value="Profit" style="ellipse;whiteSpace=wrap;html=1;" parent="hxNx-i2qnly7g-_exkPQ-1" vertex="1">
                    <mxGeometry x="-1437" y="80" width="120" height="80" as="geometry"/>
                </mxCell>
                <mxCell id="zQSu6dJ-XLiglkoiDzKP-70" value="Risk" style="ellipse;whiteSpace=wrap;html=1;" parent="hxNx-i2qnly7g-_exkPQ-1" vertex="1">
                    <mxGeometry x="-1308" y="100" width="120" height="80" as="geometry"/>
                </mxCell>
                <mxCell id="zQSu6dJ-XLiglkoiDzKP-75" style="rounded=0;orthogonalLoop=1;jettySize=auto;html=1;" parent="hxNx-i2qnly7g-_exkPQ-1" source="zQSu6dJ-XLiglkoiDzKP-85" target="zQSu6dJ-XLiglkoiDzKP-104" edge="1">
                    <mxGeometry relative="1" as="geometry">
                        <mxPoint x="940.5700000000002" y="-150" as="targetPoint"/>
                    </mxGeometry>
                </mxCell>
                <mxCell id="zQSu6dJ-XLiglkoiDzKP-76" value="Invest" style="edgeLabel;html=1;align=center;verticalAlign=middle;resizable=0;points=[];" parent="zQSu6dJ-XLiglkoiDzKP-75" vertex="1" connectable="0">
                    <mxGeometry x="-0.3249" relative="1" as="geometry">
                        <mxPoint x="-26.84" y="-6.180000000000001" as="offset"/>
                    </mxGeometry>
                </mxCell>
                <mxCell id="zQSu6dJ-XLiglkoiDzKP-77" value="" style="edgeStyle=none;rounded=0;orthogonalLoop=1;jettySize=auto;html=1;startArrow=classic;startFill=1;endArrow=none;endFill=0;entryX=1;entryY=1;entryDx=0;entryDy=0;" parent="hxNx-i2qnly7g-_exkPQ-1" source="zQSu6dJ-XLiglkoiDzKP-85" target="7" edge="1">
                    <mxGeometry relative="1" as="geometry">
                        <mxPoint x="407.9964068711927" y="-381.7157287525383" as="targetPoint"/>
                    </mxGeometry>
                </mxCell>
                <mxCell id="zQSu6dJ-XLiglkoiDzKP-78" value="Manage" style="edgeLabel;html=1;align=center;verticalAlign=middle;resizable=0;points=[];" parent="zQSu6dJ-XLiglkoiDzKP-77" vertex="1" connectable="0">
                    <mxGeometry x="-0.3375" y="3" relative="1" as="geometry">
                        <mxPoint x="13.329999999999998" y="3" as="offset"/>
                    </mxGeometry>
                </mxCell>
                <mxCell id="zQSu6dJ-XLiglkoiDzKP-79" value="" style="edgeStyle=none;rounded=0;orthogonalLoop=1;jettySize=auto;html=1;" parent="hxNx-i2qnly7g-_exkPQ-1" source="zQSu6dJ-XLiglkoiDzKP-85" target="zQSu6dJ-XLiglkoiDzKP-99" edge="1">
                    <mxGeometry relative="1" as="geometry"/>
                </mxCell>
                <mxCell id="zQSu6dJ-XLiglkoiDzKP-80" value="Name" style="edgeLabel;html=1;align=center;verticalAlign=middle;resizable=0;points=[];" parent="zQSu6dJ-XLiglkoiDzKP-79" vertex="1" connectable="0">
                    <mxGeometry x="-0.1844" y="-1" relative="1" as="geometry">
                        <mxPoint as="offset"/>
                    </mxGeometry>
                </mxCell>
                <mxCell id="zQSu6dJ-XLiglkoiDzKP-81" value="" style="edgeStyle=none;rounded=0;orthogonalLoop=1;jettySize=auto;html=1;" parent="hxNx-i2qnly7g-_exkPQ-1" source="zQSu6dJ-XLiglkoiDzKP-85" target="zQSu6dJ-XLiglkoiDzKP-100" edge="1">
                    <mxGeometry relative="1" as="geometry"/>
                </mxCell>
                <mxCell id="zQSu6dJ-XLiglkoiDzKP-82" value="Symbol" style="edgeLabel;html=1;align=center;verticalAlign=middle;resizable=0;points=[];" parent="zQSu6dJ-XLiglkoiDzKP-81" vertex="1" connectable="0">
                    <mxGeometry x="-0.396" y="2" relative="1" as="geometry">
                        <mxPoint as="offset"/>
                    </mxGeometry>
                </mxCell>
                <mxCell id="zQSu6dJ-XLiglkoiDzKP-83" style="edgeStyle=none;rounded=0;orthogonalLoop=1;jettySize=auto;html=1;entryX=1;entryY=0.5;entryDx=0;entryDy=0;" parent="hxNx-i2qnly7g-_exkPQ-1" source="zQSu6dJ-XLiglkoiDzKP-85" target="8GLNLuJ4QE0qdc3_PFjX-70" edge="1">
                    <mxGeometry relative="1" as="geometry">
                        <mxPoint x="-784.4299999999998" y="410" as="targetPoint"/>
                    </mxGeometry>
                </mxCell>
                <mxCell id="zQSu6dJ-XLiglkoiDzKP-84" value="Type" style="edgeLabel;html=1;align=center;verticalAlign=middle;resizable=0;points=[];" parent="zQSu6dJ-XLiglkoiDzKP-83" vertex="1" connectable="0">
                    <mxGeometry x="0.371" y="-1" relative="1" as="geometry">
                        <mxPoint as="offset"/>
                    </mxGeometry>
                </mxCell>
                <mxCell id="zQSu6dJ-XLiglkoiDzKP-85" value="SCBSET50-A" style="ellipse;whiteSpace=wrap;html=1;" parent="hxNx-i2qnly7g-_exkPQ-1" vertex="1">
                    <mxGeometry x="-1103.9999999999998" y="485" width="120" height="80" as="geometry"/>
                </mxCell>
                <mxCell id="zQSu6dJ-XLiglkoiDzKP-99" value="SCB SET INDEX 50" style="ellipse;whiteSpace=wrap;html=1;" parent="hxNx-i2qnly7g-_exkPQ-1" vertex="1">
                    <mxGeometry x="-946.9999999999998" y="425" width="120" height="80" as="geometry"/>
                </mxCell>
                <mxCell id="zQSu6dJ-XLiglkoiDzKP-100" value="SCBSET50-A" style="ellipse;whiteSpace=wrap;html=1;" parent="hxNx-i2qnly7g-_exkPQ-1" vertex="1">
                    <mxGeometry x="-954" y="600" width="120" height="80" as="geometry"/>
                </mxCell>
                <mxCell id="zQSu6dJ-XLiglkoiDzKP-101" value="" style="edgeStyle=none;rounded=0;orthogonalLoop=1;jettySize=auto;html=1;entryX=1;entryY=0.5;entryDx=0;entryDy=0;" parent="hxNx-i2qnly7g-_exkPQ-1" source="zQSu6dJ-XLiglkoiDzKP-104" target="1" edge="1">
                    <mxGeometry relative="1" as="geometry"/>
                </mxCell>
                <mxCell id="zQSu6dJ-XLiglkoiDzKP-102" value="InvestTo" style="edgeLabel;html=1;align=center;verticalAlign=middle;resizable=0;points=[];" parent="zQSu6dJ-XLiglkoiDzKP-101" vertex="1" connectable="0">
                    <mxGeometry x="-0.3204" relative="1" as="geometry">
                        <mxPoint x="-13.91" y="-1.52" as="offset"/>
                    </mxGeometry>
                </mxCell>
                <mxCell id="zQSu6dJ-XLiglkoiDzKP-103" value="" style="edgeStyle=none;rounded=0;orthogonalLoop=1;jettySize=auto;html=1;" parent="hxNx-i2qnly7g-_exkPQ-1" source="zQSu6dJ-XLiglkoiDzKP-104" target="zQSu6dJ-XLiglkoiDzKP-105" edge="1">
                    <mxGeometry relative="1" as="geometry"/>
                </mxCell>
                <mxCell id="zQSu6dJ-XLiglkoiDzKP-104" value="SCBSET50-A-PTT" style="ellipse;whiteSpace=wrap;html=1;" parent="hxNx-i2qnly7g-_exkPQ-1" vertex="1">
                    <mxGeometry x="-1067" y="645" width="120" height="80" as="geometry"/>
                </mxCell>
                <mxCell id="zQSu6dJ-XLiglkoiDzKP-105" value="0.0877 (double)" style="ellipse;whiteSpace=wrap;html=1;" parent="hxNx-i2qnly7g-_exkPQ-1" vertex="1">
                    <mxGeometry x="-954" y="800" width="120" height="80" as="geometry"/>
                </mxCell>
            </root>
        </mxGraphModel>
    </diagram>
    <diagram id="Ehg3R_pZKgUuEDpqJmbh" name="Class Hierarchy">
        <mxGraphModel dx="1145" dy="430" grid="1" gridSize="10" guides="1" tooltips="1" connect="1" arrows="1" fold="1" page="1" pageScale="1" pageWidth="1169" pageHeight="827" math="0" shadow="0">
            <root>
                <mxCell id="jLY8G0JBw0-V70f6RSkC-0"/>
                <mxCell id="jLY8G0JBw0-V70f6RSkC-1" parent="jLY8G0JBw0-V70f6RSkC-0"/>
                <mxCell id="jLY8G0JBw0-V70f6RSkC-4" value="" style="rounded=0;orthogonalLoop=1;jettySize=auto;html=1;startArrow=classic;startFill=1;endArrow=none;endFill=0;entryX=0;entryY=0;entryDx=0;entryDy=0;" parent="jLY8G0JBw0-V70f6RSkC-1" source="jLY8G0JBw0-V70f6RSkC-2" target="uY0lWjrbDCF-Lmr9nMHr-8" edge="1">
                    <mxGeometry relative="1" as="geometry">
                        <mxPoint x="518.4347826086957" y="364" as="targetPoint"/>
                    </mxGeometry>
                </mxCell>
                <mxCell id="jLY8G0JBw0-V70f6RSkC-5" value="subclassOff" style="edgeLabel;html=1;align=center;verticalAlign=middle;resizable=0;points=[];" parent="jLY8G0JBw0-V70f6RSkC-4" vertex="1" connectable="0">
                    <mxGeometry x="-0.2698" y="-1" relative="1" as="geometry">
                        <mxPoint x="73.36999999999999" y="14.189999999999998" as="offset"/>
                    </mxGeometry>
                </mxCell>
                <mxCell id="jLY8G0JBw0-V70f6RSkC-7" value="" style="edgeStyle=none;rounded=0;orthogonalLoop=1;jettySize=auto;html=1;startArrow=classic;startFill=1;endArrow=none;endFill=0;" parent="jLY8G0JBw0-V70f6RSkC-1" source="jLY8G0JBw0-V70f6RSkC-2" target="uY0lWjrbDCF-Lmr9nMHr-11" edge="1">
                    <mxGeometry relative="1" as="geometry">
                        <mxPoint x="639.875" y="294" as="targetPoint"/>
                    </mxGeometry>
                </mxCell>
                <mxCell id="jLY8G0JBw0-V70f6RSkC-10" value="subclassOf" style="edgeLabel;html=1;align=center;verticalAlign=middle;resizable=0;points=[];" parent="jLY8G0JBw0-V70f6RSkC-7" vertex="1" connectable="0">
                    <mxGeometry x="-0.3393" y="-1" relative="1" as="geometry">
                        <mxPoint x="54.54" y="33.09" as="offset"/>
                    </mxGeometry>
                </mxCell>
                <mxCell id="jLY8G0JBw0-V70f6RSkC-9" value="" style="edgeStyle=none;rounded=0;orthogonalLoop=1;jettySize=auto;html=1;startArrow=classic;startFill=1;endArrow=none;endFill=0;" parent="jLY8G0JBw0-V70f6RSkC-1" source="jLY8G0JBw0-V70f6RSkC-2" target="jLY8G0JBw0-V70f6RSkC-8" edge="1">
                    <mxGeometry relative="1" as="geometry"/>
                </mxCell>
                <mxCell id="jLY8G0JBw0-V70f6RSkC-13" value="subclassOf" style="edgeLabel;html=1;align=center;verticalAlign=middle;resizable=0;points=[];" parent="jLY8G0JBw0-V70f6RSkC-9" vertex="1" connectable="0">
                    <mxGeometry x="-0.1192" y="-2" relative="1" as="geometry">
                        <mxPoint x="12.000000000000007" y="-2" as="offset"/>
                    </mxGeometry>
                </mxCell>
                <mxCell id="jLY8G0JBw0-V70f6RSkC-16" value="" style="edgeStyle=none;rounded=0;orthogonalLoop=1;jettySize=auto;html=1;startArrow=classic;startFill=1;endArrow=none;endFill=0;" parent="jLY8G0JBw0-V70f6RSkC-1" source="jLY8G0JBw0-V70f6RSkC-2" target="jLY8G0JBw0-V70f6RSkC-15" edge="1">
                    <mxGeometry relative="1" as="geometry"/>
                </mxCell>
                <mxCell id="jLY8G0JBw0-V70f6RSkC-41" value="subclassOf" style="edgeLabel;html=1;align=center;verticalAlign=middle;resizable=0;points=[];" parent="jLY8G0JBw0-V70f6RSkC-16" vertex="1" connectable="0">
                    <mxGeometry x="-0.3298" y="2" relative="1" as="geometry">
                        <mxPoint x="-12.78" y="32.76" as="offset"/>
                    </mxGeometry>
                </mxCell>
                <mxCell id="uY0lWjrbDCF-Lmr9nMHr-73" style="edgeStyle=none;rounded=0;orthogonalLoop=1;jettySize=auto;html=1;entryX=0;entryY=0.5;entryDx=0;entryDy=0;startArrow=classic;startFill=1;endArrow=none;endFill=0;" parent="jLY8G0JBw0-V70f6RSkC-1" source="jLY8G0JBw0-V70f6RSkC-2" target="uY0lWjrbDCF-Lmr9nMHr-72" edge="1">
                    <mxGeometry relative="1" as="geometry"/>
                </mxCell>
                <mxCell id="uY0lWjrbDCF-Lmr9nMHr-74" value="subclassOf" style="edgeLabel;html=1;align=center;verticalAlign=middle;resizable=0;points=[];" parent="uY0lWjrbDCF-Lmr9nMHr-73" vertex="1" connectable="0">
                    <mxGeometry x="-0.1273" y="3" relative="1" as="geometry">
                        <mxPoint as="offset"/>
                    </mxGeometry>
                </mxCell>
                <mxCell id="jLY8G0JBw0-V70f6RSkC-2" value="Thing" style="ellipse;whiteSpace=wrap;html=1;ellipse;whiteSpace=wrap;html=1;" parent="jLY8G0JBw0-V70f6RSkC-1" vertex="1">
                    <mxGeometry x="210" y="105" width="120" height="60" as="geometry"/>
                </mxCell>
                <mxCell id="jLY8G0JBw0-V70f6RSkC-29" value="" style="edgeStyle=none;rounded=0;orthogonalLoop=1;jettySize=auto;html=1;startArrow=classic;startFill=1;endArrow=none;endFill=0;entryX=0.5;entryY=0;entryDx=0;entryDy=0;exitX=0.367;exitY=0.983;exitDx=0;exitDy=0;exitPerimeter=0;" parent="jLY8G0JBw0-V70f6RSkC-1" source="uY0lWjrbDCF-Lmr9nMHr-8" target="uY0lWjrbDCF-Lmr9nMHr-9" edge="1">
                    <mxGeometry relative="1" as="geometry">
                        <mxPoint x="810" y="295" as="sourcePoint"/>
                        <mxPoint x="551.8125" y="524" as="targetPoint"/>
                    </mxGeometry>
                </mxCell>
                <mxCell id="jLY8G0JBw0-V70f6RSkC-34" value="subclassOf" style="edgeLabel;html=1;align=center;verticalAlign=middle;resizable=0;points=[];" parent="jLY8G0JBw0-V70f6RSkC-29" vertex="1" connectable="0">
                    <mxGeometry x="-0.3195" y="1" relative="1" as="geometry">
                        <mxPoint x="-10.17" y="6.7" as="offset"/>
                    </mxGeometry>
                </mxCell>
                <mxCell id="jLY8G0JBw0-V70f6RSkC-32" value="" style="edgeStyle=none;rounded=0;orthogonalLoop=1;jettySize=auto;html=1;startArrow=classic;startFill=1;endArrow=none;endFill=0;exitX=0.7;exitY=0.95;exitDx=0;exitDy=0;entryX=0.317;entryY=0.017;entryDx=0;entryDy=0;entryPerimeter=0;exitPerimeter=0;" parent="jLY8G0JBw0-V70f6RSkC-1" source="uY0lWjrbDCF-Lmr9nMHr-8" target="uY0lWjrbDCF-Lmr9nMHr-10" edge="1">
                    <mxGeometry relative="1" as="geometry">
                        <mxPoint x="569.3125" y="424" as="sourcePoint"/>
                        <mxPoint x="673.6874999999998" y="524" as="targetPoint"/>
                    </mxGeometry>
                </mxCell>
                <mxCell id="jLY8G0JBw0-V70f6RSkC-33" value="subclassOf" style="edgeLabel;html=1;align=center;verticalAlign=middle;resizable=0;points=[];" parent="jLY8G0JBw0-V70f6RSkC-32" vertex="1" connectable="0">
                    <mxGeometry x="-0.1813" y="-2" relative="1" as="geometry">
                        <mxPoint as="offset"/>
                    </mxGeometry>
                </mxCell>
                <mxCell id="jLY8G0JBw0-V70f6RSkC-8" value="Asset Management Company" style="ellipse;whiteSpace=wrap;html=1;ellipse;whiteSpace=wrap;html=1;" parent="jLY8G0JBw0-V70f6RSkC-1" vertex="1">
                    <mxGeometry x="530" y="105" width="120" height="60" as="geometry"/>
                </mxCell>
                <mxCell id="jLY8G0JBw0-V70f6RSkC-18" value="" style="edgeStyle=none;rounded=0;orthogonalLoop=1;jettySize=auto;html=1;startArrow=classic;startFill=1;endArrow=none;endFill=0;" parent="jLY8G0JBw0-V70f6RSkC-1" source="jLY8G0JBw0-V70f6RSkC-15" target="jLY8G0JBw0-V70f6RSkC-17" edge="1">
                    <mxGeometry relative="1" as="geometry"/>
                </mxCell>
                <mxCell id="jLY8G0JBw0-V70f6RSkC-36" value="subclassOf" style="edgeLabel;html=1;align=center;verticalAlign=middle;resizable=0;points=[];" parent="jLY8G0JBw0-V70f6RSkC-18" vertex="1" connectable="0">
                    <mxGeometry x="0.2494" y="-1" relative="1" as="geometry">
                        <mxPoint as="offset"/>
                    </mxGeometry>
                </mxCell>
                <mxCell id="jLY8G0JBw0-V70f6RSkC-20" value="" style="edgeStyle=none;rounded=0;orthogonalLoop=1;jettySize=auto;html=1;startArrow=classic;startFill=1;endArrow=none;endFill=0;entryX=0.5;entryY=0;entryDx=0;entryDy=0;" parent="jLY8G0JBw0-V70f6RSkC-1" source="jLY8G0JBw0-V70f6RSkC-15" target="uY0lWjrbDCF-Lmr9nMHr-6" edge="1">
                    <mxGeometry relative="1" as="geometry">
                        <mxPoint x="261.20000000000005" y="524" as="targetPoint"/>
                    </mxGeometry>
                </mxCell>
                <mxCell id="jLY8G0JBw0-V70f6RSkC-38" value="subclassOf" style="edgeLabel;html=1;align=center;verticalAlign=middle;resizable=0;points=[];" parent="jLY8G0JBw0-V70f6RSkC-20" vertex="1" connectable="0">
                    <mxGeometry x="0.2156" y="-1" relative="1" as="geometry">
                        <mxPoint as="offset"/>
                    </mxGeometry>
                </mxCell>
                <mxCell id="jLY8G0JBw0-V70f6RSkC-23" value="" style="edgeStyle=none;rounded=0;orthogonalLoop=1;jettySize=auto;html=1;startArrow=classic;startFill=1;endArrow=none;endFill=0;entryX=1;entryY=1;entryDx=0;entryDy=0;" parent="jLY8G0JBw0-V70f6RSkC-1" source="jLY8G0JBw0-V70f6RSkC-15" target="uY0lWjrbDCF-Lmr9nMHr-2" edge="1">
                    <mxGeometry relative="1" as="geometry">
                        <mxPoint x="168" y="243.19999999999982" as="targetPoint"/>
                    </mxGeometry>
                </mxCell>
                <mxCell id="jLY8G0JBw0-V70f6RSkC-35" value="subclassOff" style="edgeLabel;html=1;align=center;verticalAlign=middle;resizable=0;points=[];" parent="jLY8G0JBw0-V70f6RSkC-23" vertex="1" connectable="0">
                    <mxGeometry x="0.2818" y="3" relative="1" as="geometry">
                        <mxPoint as="offset"/>
                    </mxGeometry>
                </mxCell>
                <mxCell id="jLY8G0JBw0-V70f6RSkC-25" value="" style="edgeStyle=none;rounded=0;orthogonalLoop=1;jettySize=auto;html=1;startArrow=classic;startFill=1;endArrow=none;endFill=0;entryX=0.5;entryY=0;entryDx=0;entryDy=0;" parent="jLY8G0JBw0-V70f6RSkC-1" source="jLY8G0JBw0-V70f6RSkC-15" target="uY0lWjrbDCF-Lmr9nMHr-7" edge="1">
                    <mxGeometry relative="1" as="geometry">
                        <mxPoint x="402" y="524" as="targetPoint"/>
                    </mxGeometry>
                </mxCell>
                <mxCell id="jLY8G0JBw0-V70f6RSkC-39" value="subclassOf" style="edgeLabel;html=1;align=center;verticalAlign=middle;resizable=0;points=[];" parent="jLY8G0JBw0-V70f6RSkC-25" vertex="1" connectable="0">
                    <mxGeometry x="0.2118" y="3" relative="1" as="geometry">
                        <mxPoint as="offset"/>
                    </mxGeometry>
                </mxCell>
                <mxCell id="jLY8G0JBw0-V70f6RSkC-27" value="" style="edgeStyle=none;rounded=0;orthogonalLoop=1;jettySize=auto;html=1;startArrow=classic;startFill=1;endArrow=none;endFill=0;" parent="jLY8G0JBw0-V70f6RSkC-1" source="jLY8G0JBw0-V70f6RSkC-15" target="uY0lWjrbDCF-Lmr9nMHr-4" edge="1">
                    <mxGeometry relative="1" as="geometry">
                        <mxPoint x="117.75999999999999" y="524" as="targetPoint"/>
                    </mxGeometry>
                </mxCell>
                <mxCell id="jLY8G0JBw0-V70f6RSkC-37" value="subclassOf" style="edgeLabel;html=1;align=center;verticalAlign=middle;resizable=0;points=[];" parent="jLY8G0JBw0-V70f6RSkC-27" vertex="1" connectable="0">
                    <mxGeometry x="0.2815" relative="1" as="geometry">
                        <mxPoint as="offset"/>
                    </mxGeometry>
                </mxCell>
                <mxCell id="uY0lWjrbDCF-Lmr9nMHr-3" style="edgeStyle=none;rounded=0;orthogonalLoop=1;jettySize=auto;html=1;entryX=0.5;entryY=0;entryDx=0;entryDy=0;startArrow=classic;startFill=1;endArrow=none;endFill=0;" parent="jLY8G0JBw0-V70f6RSkC-1" source="jLY8G0JBw0-V70f6RSkC-15" target="uY0lWjrbDCF-Lmr9nMHr-0" edge="1">
                    <mxGeometry relative="1" as="geometry"/>
                </mxCell>
                <mxCell id="uY0lWjrbDCF-Lmr9nMHr-14" value="Domain" style="edgeLabel;html=1;align=center;verticalAlign=middle;resizable=0;points=[];" parent="uY0lWjrbDCF-Lmr9nMHr-3" vertex="1" connectable="0">
                    <mxGeometry x="0.2737" y="3" relative="1" as="geometry">
                        <mxPoint x="-14.439999999999998" y="-9.870000000000005" as="offset"/>
                    </mxGeometry>
                </mxCell>
                <mxCell id="jLY8G0JBw0-V70f6RSkC-15" value="Asset" style="ellipse;whiteSpace=wrap;html=1;ellipse;whiteSpace=wrap;html=1;" parent="jLY8G0JBw0-V70f6RSkC-1" vertex="1">
                    <mxGeometry x="195" y="254" width="120" height="60" as="geometry"/>
                </mxCell>
                <mxCell id="jLY8G0JBw0-V70f6RSkC-17" value="Gold" style="ellipse;whiteSpace=wrap;html=1;ellipse;whiteSpace=wrap;html=1;" parent="jLY8G0JBw0-V70f6RSkC-1" vertex="1">
                    <mxGeometry x="10" y="254" width="120" height="60" as="geometry"/>
                </mxCell>
                <mxCell id="uY0lWjrbDCF-Lmr9nMHr-2" value="Oil" style="ellipse;whiteSpace=wrap;html=1;ellipse;whiteSpace=wrap;html=1;" parent="jLY8G0JBw0-V70f6RSkC-1" vertex="1">
                    <mxGeometry x="50" y="114" width="120" height="60" as="geometry"/>
                </mxCell>
                <mxCell id="uY0lWjrbDCF-Lmr9nMHr-4" value="Other" style="ellipse;whiteSpace=wrap;html=1;ellipse;whiteSpace=wrap;html=1;" parent="jLY8G0JBw0-V70f6RSkC-1" vertex="1">
                    <mxGeometry x="20" y="345" width="120" height="60" as="geometry"/>
                </mxCell>
                <mxCell id="uY0lWjrbDCF-Lmr9nMHr-49" style="edgeStyle=none;rounded=0;orthogonalLoop=1;jettySize=auto;html=1;entryX=0;entryY=0.5;entryDx=0;entryDy=0;startArrow=classic;startFill=1;endArrow=none;endFill=0;" parent="jLY8G0JBw0-V70f6RSkC-1" source="uY0lWjrbDCF-Lmr9nMHr-6" target="uY0lWjrbDCF-Lmr9nMHr-47" edge="1">
                    <mxGeometry relative="1" as="geometry"/>
                </mxCell>
                <mxCell id="uY0lWjrbDCF-Lmr9nMHr-55" value="Domain" style="edgeLabel;html=1;align=center;verticalAlign=middle;resizable=0;points=[];" parent="uY0lWjrbDCF-Lmr9nMHr-49" vertex="1" connectable="0">
                    <mxGeometry x="-0.5449" y="5" relative="1" as="geometry">
                        <mxPoint x="6.64" y="12.74" as="offset"/>
                    </mxGeometry>
                </mxCell>
                <mxCell id="uY0lWjrbDCF-Lmr9nMHr-50" style="edgeStyle=none;rounded=0;orthogonalLoop=1;jettySize=auto;html=1;entryX=0;entryY=0.5;entryDx=0;entryDy=0;startArrow=classic;startFill=1;endArrow=none;endFill=0;exitX=0;exitY=1;exitDx=0;exitDy=0;" parent="jLY8G0JBw0-V70f6RSkC-1" source="uY0lWjrbDCF-Lmr9nMHr-6" target="uY0lWjrbDCF-Lmr9nMHr-48" edge="1">
                    <mxGeometry relative="1" as="geometry"/>
                </mxCell>
                <mxCell id="uY0lWjrbDCF-Lmr9nMHr-56" value="Domain" style="edgeLabel;html=1;align=center;verticalAlign=middle;resizable=0;points=[];" parent="uY0lWjrbDCF-Lmr9nMHr-50" vertex="1" connectable="0">
                    <mxGeometry x="-0.2328" y="-1" relative="1" as="geometry">
                        <mxPoint y="1" as="offset"/>
                    </mxGeometry>
                </mxCell>
                <mxCell id="uY0lWjrbDCF-Lmr9nMHr-6" value="Bond" style="ellipse;whiteSpace=wrap;html=1;ellipse;whiteSpace=wrap;html=1;" parent="jLY8G0JBw0-V70f6RSkC-1" vertex="1">
                    <mxGeometry x="100" y="435" width="120" height="60" as="geometry"/>
                </mxCell>
                <mxCell id="uY0lWjrbDCF-Lmr9nMHr-7" value="Stock" style="ellipse;whiteSpace=wrap;html=1;ellipse;whiteSpace=wrap;html=1;" parent="jLY8G0JBw0-V70f6RSkC-1" vertex="1">
                    <mxGeometry x="210" y="394" width="120" height="60" as="geometry"/>
                </mxCell>
                <mxCell id="uY0lWjrbDCF-Lmr9nMHr-87" value="" style="edgeStyle=none;rounded=0;orthogonalLoop=1;jettySize=auto;html=1;startArrow=classic;startFill=1;endArrow=none;endFill=0;" parent="jLY8G0JBw0-V70f6RSkC-1" source="uY0lWjrbDCF-Lmr9nMHr-8" target="uY0lWjrbDCF-Lmr9nMHr-86" edge="1">
                    <mxGeometry relative="1" as="geometry"/>
                </mxCell>
                <mxCell id="uY0lWjrbDCF-Lmr9nMHr-91" value="Domain" style="edgeLabel;html=1;align=center;verticalAlign=middle;resizable=0;points=[];" parent="uY0lWjrbDCF-Lmr9nMHr-87" vertex="1" connectable="0">
                    <mxGeometry x="0.2255" y="-3" relative="1" as="geometry">
                        <mxPoint as="offset"/>
                    </mxGeometry>
                </mxCell>
                <mxCell id="uY0lWjrbDCF-Lmr9nMHr-95" value="" style="edgeStyle=none;rounded=0;orthogonalLoop=1;jettySize=auto;html=1;startArrow=classic;startFill=1;endArrow=none;endFill=0;" parent="jLY8G0JBw0-V70f6RSkC-1" source="uY0lWjrbDCF-Lmr9nMHr-8" target="uY0lWjrbDCF-Lmr9nMHr-93" edge="1">
                    <mxGeometry relative="1" as="geometry"/>
                </mxCell>
                <mxCell id="uY0lWjrbDCF-Lmr9nMHr-99" value="Domain" style="edgeLabel;html=1;align=center;verticalAlign=middle;resizable=0;points=[];" parent="uY0lWjrbDCF-Lmr9nMHr-95" vertex="1" connectable="0">
                    <mxGeometry x="0.3333" y="-2" relative="1" as="geometry">
                        <mxPoint x="-10.47" y="-3.73" as="offset"/>
                    </mxGeometry>
                </mxCell>
                <mxCell id="uY0lWjrbDCF-Lmr9nMHr-103" style="edgeStyle=none;rounded=0;orthogonalLoop=1;jettySize=auto;html=1;entryX=0;entryY=0.5;entryDx=0;entryDy=0;startArrow=classic;startFill=1;endArrow=none;endFill=0;" parent="jLY8G0JBw0-V70f6RSkC-1" source="uY0lWjrbDCF-Lmr9nMHr-8" target="uY0lWjrbDCF-Lmr9nMHr-101" edge="1">
                    <mxGeometry relative="1" as="geometry"/>
                </mxCell>
                <mxCell id="uY0lWjrbDCF-Lmr9nMHr-104" value="Domain" style="edgeLabel;html=1;align=center;verticalAlign=middle;resizable=0;points=[];" parent="uY0lWjrbDCF-Lmr9nMHr-103" vertex="1" connectable="0">
                    <mxGeometry x="0.1374" y="3" relative="1" as="geometry">
                        <mxPoint as="offset"/>
                    </mxGeometry>
                </mxCell>
                <mxCell id="uY0lWjrbDCF-Lmr9nMHr-8" value="Fund" style="ellipse;whiteSpace=wrap;html=1;ellipse;whiteSpace=wrap;html=1;" parent="jLY8G0JBw0-V70f6RSkC-1" vertex="1">
                    <mxGeometry x="690" y="225" width="120" height="60" as="geometry"/>
                </mxCell>
                <mxCell id="uY0lWjrbDCF-Lmr9nMHr-9" value="Opened-End Fund" style="ellipse;whiteSpace=wrap;html=1;ellipse;whiteSpace=wrap;html=1;" parent="jLY8G0JBw0-V70f6RSkC-1" vertex="1">
                    <mxGeometry x="630" y="384" width="120" height="60" as="geometry"/>
                </mxCell>
                <mxCell id="uY0lWjrbDCF-Lmr9nMHr-10" value="Closed-End Fund" style="ellipse;whiteSpace=wrap;html=1;ellipse;whiteSpace=wrap;html=1;" parent="jLY8G0JBw0-V70f6RSkC-1" vertex="1">
                    <mxGeometry x="760" y="384" width="120" height="60" as="geometry"/>
                </mxCell>
                <mxCell id="uY0lWjrbDCF-Lmr9nMHr-62" style="edgeStyle=none;rounded=0;orthogonalLoop=1;jettySize=auto;html=1;entryX=0.5;entryY=0;entryDx=0;entryDy=0;startArrow=classic;startFill=1;endArrow=none;endFill=0;" parent="jLY8G0JBw0-V70f6RSkC-1" source="uY0lWjrbDCF-Lmr9nMHr-11" target="uY0lWjrbDCF-Lmr9nMHr-60" edge="1">
                    <mxGeometry relative="1" as="geometry"/>
                </mxCell>
                <mxCell id="uY0lWjrbDCF-Lmr9nMHr-110" value="Domain" style="edgeLabel;html=1;align=center;verticalAlign=middle;resizable=0;points=[];" parent="uY0lWjrbDCF-Lmr9nMHr-62" vertex="1" connectable="0">
                    <mxGeometry x="-0.2198" y="-2" relative="1" as="geometry">
                        <mxPoint as="offset"/>
                    </mxGeometry>
                </mxCell>
                <mxCell id="uY0lWjrbDCF-Lmr9nMHr-11" value="Percentage" style="ellipse;whiteSpace=wrap;html=1;ellipse;whiteSpace=wrap;html=1;" parent="jLY8G0JBw0-V70f6RSkC-1" vertex="1">
                    <mxGeometry x="515" y="324" width="120" height="60" as="geometry"/>
                </mxCell>
                <mxCell id="uY0lWjrbDCF-Lmr9nMHr-54" style="edgeStyle=none;rounded=0;orthogonalLoop=1;jettySize=auto;html=1;entryX=0.292;entryY=0;entryDx=0;entryDy=0;entryPerimeter=0;startArrow=none;startFill=0;endArrow=classic;endFill=1;" parent="jLY8G0JBw0-V70f6RSkC-1" source="uY0lWjrbDCF-Lmr9nMHr-0" target="uY0lWjrbDCF-Lmr9nMHr-40" edge="1">
                    <mxGeometry relative="1" as="geometry"/>
                </mxCell>
                <mxCell id="uY0lWjrbDCF-Lmr9nMHr-65" value="Range" style="edgeLabel;html=1;align=center;verticalAlign=middle;resizable=0;points=[];" parent="uY0lWjrbDCF-Lmr9nMHr-54" vertex="1" connectable="0">
                    <mxGeometry x="-0.2079" y="3" relative="1" as="geometry">
                        <mxPoint as="offset"/>
                    </mxGeometry>
                </mxCell>
                <mxCell id="uY0lWjrbDCF-Lmr9nMHr-0" value="AssetName" style="rounded=0;whiteSpace=wrap;html=1;" parent="jLY8G0JBw0-V70f6RSkC-1" vertex="1">
                    <mxGeometry x="360" y="405" width="120" height="60" as="geometry"/>
                </mxCell>
                <mxCell id="uY0lWjrbDCF-Lmr9nMHr-20" style="edgeStyle=none;rounded=0;orthogonalLoop=1;jettySize=auto;html=1;entryX=0;entryY=0.5;entryDx=0;entryDy=0;startArrow=none;startFill=0;endArrow=classic;endFill=1;" parent="jLY8G0JBw0-V70f6RSkC-1" source="uY0lWjrbDCF-Lmr9nMHr-17" target="uY0lWjrbDCF-Lmr9nMHr-8" edge="1">
                    <mxGeometry relative="1" as="geometry"/>
                </mxCell>
                <mxCell id="uY0lWjrbDCF-Lmr9nMHr-25" value="Domain" style="edgeLabel;html=1;align=center;verticalAlign=middle;resizable=0;points=[];" parent="uY0lWjrbDCF-Lmr9nMHr-20" vertex="1" connectable="0">
                    <mxGeometry x="-0.3907" y="-2" relative="1" as="geometry">
                        <mxPoint x="1.1899999999999995" as="offset"/>
                    </mxGeometry>
                </mxCell>
                <mxCell id="uY0lWjrbDCF-Lmr9nMHr-21" style="edgeStyle=none;rounded=0;orthogonalLoop=1;jettySize=auto;html=1;entryX=0.5;entryY=0;entryDx=0;entryDy=0;startArrow=none;startFill=0;endArrow=classic;endFill=1;" parent="jLY8G0JBw0-V70f6RSkC-1" source="uY0lWjrbDCF-Lmr9nMHr-17" target="uY0lWjrbDCF-Lmr9nMHr-11" edge="1">
                    <mxGeometry relative="1" as="geometry">
                        <Array as="points"/>
                    </mxGeometry>
                </mxCell>
                <mxCell id="uY0lWjrbDCF-Lmr9nMHr-26" value="Range" style="edgeLabel;html=1;align=center;verticalAlign=middle;resizable=0;points=[];" parent="uY0lWjrbDCF-Lmr9nMHr-21" vertex="1" connectable="0">
                    <mxGeometry x="-0.0273" y="1" relative="1" as="geometry">
                        <mxPoint as="offset"/>
                    </mxGeometry>
                </mxCell>
                <mxCell id="uY0lWjrbDCF-Lmr9nMHr-17" value="Invest" style="rounded=0;whiteSpace=wrap;html=1;" parent="jLY8G0JBw0-V70f6RSkC-1" vertex="1">
                    <mxGeometry x="540" y="225" width="70" height="60" as="geometry"/>
                </mxCell>
                <mxCell id="uY0lWjrbDCF-Lmr9nMHr-27" style="edgeStyle=none;rounded=0;orthogonalLoop=1;jettySize=auto;html=1;entryX=0;entryY=0.5;entryDx=0;entryDy=0;startArrow=none;startFill=0;endArrow=classic;endFill=1;" parent="jLY8G0JBw0-V70f6RSkC-1" source="uY0lWjrbDCF-Lmr9nMHr-24" target="uY0lWjrbDCF-Lmr9nMHr-11" edge="1">
                    <mxGeometry relative="1" as="geometry"/>
                </mxCell>
                <mxCell id="uY0lWjrbDCF-Lmr9nMHr-29" value="Domain" style="edgeLabel;html=1;align=center;verticalAlign=middle;resizable=0;points=[];" parent="uY0lWjrbDCF-Lmr9nMHr-27" vertex="1" connectable="0">
                    <mxGeometry x="-0.2305" y="1" relative="1" as="geometry">
                        <mxPoint as="offset"/>
                    </mxGeometry>
                </mxCell>
                <mxCell id="uY0lWjrbDCF-Lmr9nMHr-28" style="edgeStyle=none;rounded=0;orthogonalLoop=1;jettySize=auto;html=1;entryX=1;entryY=1;entryDx=0;entryDy=0;startArrow=none;startFill=0;endArrow=classic;endFill=1;" parent="jLY8G0JBw0-V70f6RSkC-1" source="uY0lWjrbDCF-Lmr9nMHr-24" target="jLY8G0JBw0-V70f6RSkC-15" edge="1">
                    <mxGeometry relative="1" as="geometry"/>
                </mxCell>
                <mxCell id="uY0lWjrbDCF-Lmr9nMHr-30" value="Range" style="edgeLabel;html=1;align=center;verticalAlign=middle;resizable=0;points=[];" parent="uY0lWjrbDCF-Lmr9nMHr-28" vertex="1" connectable="0">
                    <mxGeometry x="0.3531" y="1" relative="1" as="geometry">
                        <mxPoint x="18.82" y="3.6999999999999993" as="offset"/>
                    </mxGeometry>
                </mxCell>
                <mxCell id="uY0lWjrbDCF-Lmr9nMHr-24" value="To" style="rounded=0;whiteSpace=wrap;html=1;" parent="jLY8G0JBw0-V70f6RSkC-1" vertex="1">
                    <mxGeometry x="370" y="295" width="80" height="60" as="geometry"/>
                </mxCell>
                <mxCell id="uY0lWjrbDCF-Lmr9nMHr-33" style="edgeStyle=none;rounded=0;orthogonalLoop=1;jettySize=auto;html=1;entryX=1;entryY=1;entryDx=0;entryDy=0;startArrow=none;startFill=0;endArrow=classic;endFill=1;" parent="jLY8G0JBw0-V70f6RSkC-1" source="uY0lWjrbDCF-Lmr9nMHr-31" target="jLY8G0JBw0-V70f6RSkC-8" edge="1">
                    <mxGeometry relative="1" as="geometry"/>
                </mxCell>
                <mxCell id="uY0lWjrbDCF-Lmr9nMHr-35" value="Domain" style="edgeLabel;html=1;align=center;verticalAlign=middle;resizable=0;points=[];" parent="uY0lWjrbDCF-Lmr9nMHr-33" vertex="1" connectable="0">
                    <mxGeometry x="-0.49" y="-2" relative="1" as="geometry">
                        <mxPoint x="-9.31" y="-12.079999999999998" as="offset"/>
                    </mxGeometry>
                </mxCell>
                <mxCell id="uY0lWjrbDCF-Lmr9nMHr-34" style="edgeStyle=none;rounded=0;orthogonalLoop=1;jettySize=auto;html=1;entryX=0.5;entryY=0;entryDx=0;entryDy=0;startArrow=none;startFill=0;endArrow=classic;endFill=1;" parent="jLY8G0JBw0-V70f6RSkC-1" source="uY0lWjrbDCF-Lmr9nMHr-31" target="uY0lWjrbDCF-Lmr9nMHr-8" edge="1">
                    <mxGeometry relative="1" as="geometry"/>
                </mxCell>
                <mxCell id="uY0lWjrbDCF-Lmr9nMHr-36" value="Range" style="edgeLabel;html=1;align=center;verticalAlign=middle;resizable=0;points=[];" parent="uY0lWjrbDCF-Lmr9nMHr-34" vertex="1" connectable="0">
                    <mxGeometry x="-0.475" y="2" relative="1" as="geometry">
                        <mxPoint x="-2" as="offset"/>
                    </mxGeometry>
                </mxCell>
                <mxCell id="uY0lWjrbDCF-Lmr9nMHr-31" value="Manage" style="rounded=0;whiteSpace=wrap;html=1;" parent="jLY8G0JBw0-V70f6RSkC-1" vertex="1">
                    <mxGeometry x="700" y="125" width="120" height="60" as="geometry"/>
                </mxCell>
                <mxCell id="uY0lWjrbDCF-Lmr9nMHr-41" style="edgeStyle=none;rounded=0;orthogonalLoop=1;jettySize=auto;html=1;entryX=0;entryY=0;entryDx=0;entryDy=0;startArrow=none;startFill=0;endArrow=classic;endFill=1;" parent="jLY8G0JBw0-V70f6RSkC-1" source="uY0lWjrbDCF-Lmr9nMHr-38" target="uY0lWjrbDCF-Lmr9nMHr-40" edge="1">
                    <mxGeometry relative="1" as="geometry"/>
                </mxCell>
                <mxCell id="uY0lWjrbDCF-Lmr9nMHr-66" value="Range" style="edgeLabel;html=1;align=center;verticalAlign=middle;resizable=0;points=[];" parent="uY0lWjrbDCF-Lmr9nMHr-41" vertex="1" connectable="0">
                    <mxGeometry x="-0.241" y="-1" relative="1" as="geometry">
                        <mxPoint y="1" as="offset"/>
                    </mxGeometry>
                </mxCell>
                <mxCell id="uY0lWjrbDCF-Lmr9nMHr-42" style="edgeStyle=none;rounded=0;orthogonalLoop=1;jettySize=auto;html=1;entryX=0.5;entryY=1;entryDx=0;entryDy=0;startArrow=none;startFill=0;endArrow=classic;endFill=1;exitX=0;exitY=0.5;exitDx=0;exitDy=0;" parent="jLY8G0JBw0-V70f6RSkC-1" source="uY0lWjrbDCF-Lmr9nMHr-38" target="uY0lWjrbDCF-Lmr9nMHr-7" edge="1">
                    <mxGeometry relative="1" as="geometry">
                        <mxPoint x="515" y="544" as="sourcePoint"/>
                    </mxGeometry>
                </mxCell>
                <mxCell id="uY0lWjrbDCF-Lmr9nMHr-57" value="Domain" style="edgeLabel;html=1;align=center;verticalAlign=middle;resizable=0;points=[];" parent="uY0lWjrbDCF-Lmr9nMHr-42" vertex="1" connectable="0">
                    <mxGeometry x="0.2341" relative="1" as="geometry">
                        <mxPoint as="offset"/>
                    </mxGeometry>
                </mxCell>
                <mxCell id="uY0lWjrbDCF-Lmr9nMHr-38" value="StockSymbol" style="rounded=0;whiteSpace=wrap;html=1;" parent="jLY8G0JBw0-V70f6RSkC-1" vertex="1">
                    <mxGeometry x="270" y="495" width="120" height="60" as="geometry"/>
                </mxCell>
                <mxCell id="uY0lWjrbDCF-Lmr9nMHr-40" value="String" style="ellipse;whiteSpace=wrap;html=1;" parent="jLY8G0JBw0-V70f6RSkC-1" vertex="1">
                    <mxGeometry x="405" y="645" width="120" height="70" as="geometry"/>
                </mxCell>
                <mxCell id="uY0lWjrbDCF-Lmr9nMHr-51" style="edgeStyle=none;rounded=0;orthogonalLoop=1;jettySize=auto;html=1;entryX=0;entryY=0.375;entryDx=0;entryDy=0;startArrow=none;startFill=0;endArrow=classic;endFill=1;entryPerimeter=0;" parent="jLY8G0JBw0-V70f6RSkC-1" source="uY0lWjrbDCF-Lmr9nMHr-47" target="uY0lWjrbDCF-Lmr9nMHr-40" edge="1">
                    <mxGeometry relative="1" as="geometry"/>
                </mxCell>
                <mxCell id="uY0lWjrbDCF-Lmr9nMHr-67" value="Range" style="edgeLabel;html=1;align=center;verticalAlign=middle;resizable=0;points=[];" parent="uY0lWjrbDCF-Lmr9nMHr-51" vertex="1" connectable="0">
                    <mxGeometry x="-0.2181" relative="1" as="geometry">
                        <mxPoint x="1" as="offset"/>
                    </mxGeometry>
                </mxCell>
                <mxCell id="uY0lWjrbDCF-Lmr9nMHr-47" value="CreditRatting" style="rounded=0;whiteSpace=wrap;html=1;" parent="jLY8G0JBw0-V70f6RSkC-1" vertex="1">
                    <mxGeometry x="160" y="565" width="120" height="60" as="geometry"/>
                </mxCell>
                <mxCell id="uY0lWjrbDCF-Lmr9nMHr-52" style="edgeStyle=none;rounded=0;orthogonalLoop=1;jettySize=auto;html=1;entryX=0.026;entryY=0.683;entryDx=0;entryDy=0;startArrow=none;startFill=0;endArrow=classic;endFill=1;entryPerimeter=0;" parent="jLY8G0JBw0-V70f6RSkC-1" source="uY0lWjrbDCF-Lmr9nMHr-48" target="uY0lWjrbDCF-Lmr9nMHr-40" edge="1">
                    <mxGeometry relative="1" as="geometry"/>
                </mxCell>
                <mxCell id="uY0lWjrbDCF-Lmr9nMHr-68" value="Range" style="edgeLabel;html=1;align=center;verticalAlign=middle;resizable=0;points=[];" parent="uY0lWjrbDCF-Lmr9nMHr-52" vertex="1" connectable="0">
                    <mxGeometry x="-0.3093" y="1" relative="1" as="geometry">
                        <mxPoint as="offset"/>
                    </mxGeometry>
                </mxCell>
                <mxCell id="uY0lWjrbDCF-Lmr9nMHr-48" value="BondNumber" style="rounded=0;whiteSpace=wrap;html=1;" parent="jLY8G0JBw0-V70f6RSkC-1" vertex="1">
                    <mxGeometry x="120" y="635" width="120" height="60" as="geometry"/>
                </mxCell>
                <mxCell id="uY0lWjrbDCF-Lmr9nMHr-53" style="edgeStyle=none;rounded=0;orthogonalLoop=1;jettySize=auto;html=1;exitX=0.5;exitY=1;exitDx=0;exitDy=0;startArrow=none;startFill=0;endArrow=classic;endFill=1;" parent="jLY8G0JBw0-V70f6RSkC-1" source="uY0lWjrbDCF-Lmr9nMHr-0" target="uY0lWjrbDCF-Lmr9nMHr-0" edge="1">
                    <mxGeometry relative="1" as="geometry"/>
                </mxCell>
                <mxCell id="uY0lWjrbDCF-Lmr9nMHr-60" value="Value" style="rounded=0;whiteSpace=wrap;html=1;" parent="jLY8G0JBw0-V70f6RSkC-1" vertex="1">
                    <mxGeometry x="515" y="480" width="120" height="60" as="geometry"/>
                </mxCell>
                <mxCell id="uY0lWjrbDCF-Lmr9nMHr-64" value="Range" style="edgeStyle=none;rounded=0;orthogonalLoop=1;jettySize=auto;html=1;startArrow=classic;startFill=1;endArrow=none;endFill=0;" parent="jLY8G0JBw0-V70f6RSkC-1" source="uY0lWjrbDCF-Lmr9nMHr-61" target="uY0lWjrbDCF-Lmr9nMHr-60" edge="1">
                    <mxGeometry relative="1" as="geometry"/>
                </mxCell>
                <mxCell id="uY0lWjrbDCF-Lmr9nMHr-61" value="Float" style="ellipse;whiteSpace=wrap;html=1;" parent="jLY8G0JBw0-V70f6RSkC-1" vertex="1">
                    <mxGeometry x="510" y="590" width="120" height="65" as="geometry"/>
                </mxCell>
                <mxCell id="uY0lWjrbDCF-Lmr9nMHr-69" value="FundTypeName" style="rounded=0;whiteSpace=wrap;html=1;" parent="jLY8G0JBw0-V70f6RSkC-1" vertex="1">
                    <mxGeometry x="860" y="15" width="120" height="60" as="geometry"/>
                </mxCell>
                <mxCell id="uY0lWjrbDCF-Lmr9nMHr-75" style="edgeStyle=none;rounded=0;orthogonalLoop=1;jettySize=auto;html=1;startArrow=classic;startFill=1;endArrow=none;endFill=0;" parent="jLY8G0JBw0-V70f6RSkC-1" source="uY0lWjrbDCF-Lmr9nMHr-72" target="uY0lWjrbDCF-Lmr9nMHr-69" edge="1">
                    <mxGeometry relative="1" as="geometry"/>
                </mxCell>
                <mxCell id="uY0lWjrbDCF-Lmr9nMHr-76" value="Domain" style="edgeLabel;html=1;align=center;verticalAlign=middle;resizable=0;points=[];" parent="uY0lWjrbDCF-Lmr9nMHr-75" vertex="1" connectable="0">
                    <mxGeometry x="0.3111" y="2" relative="1" as="geometry">
                        <mxPoint x="-9.17" y="2" as="offset"/>
                    </mxGeometry>
                </mxCell>
                <mxCell id="uY0lWjrbDCF-Lmr9nMHr-72" value="FundType" style="ellipse;whiteSpace=wrap;html=1;ellipse;whiteSpace=wrap;html=1;" parent="jLY8G0JBw0-V70f6RSkC-1" vertex="1">
                    <mxGeometry x="660" y="15" width="120" height="60" as="geometry"/>
                </mxCell>
                <mxCell id="uY0lWjrbDCF-Lmr9nMHr-79" style="edgeStyle=none;rounded=0;orthogonalLoop=1;jettySize=auto;html=1;entryX=1;entryY=0.5;entryDx=0;entryDy=0;startArrow=classic;startFill=1;endArrow=none;endFill=0;exitX=0;exitY=0.5;exitDx=0;exitDy=0;" parent="jLY8G0JBw0-V70f6RSkC-1" source="uY0lWjrbDCF-Lmr9nMHr-80" target="uY0lWjrbDCF-Lmr9nMHr-69" edge="1">
                    <mxGeometry relative="1" as="geometry">
                        <mxPoint x="1009.1071512326598" y="114.66471278460449" as="sourcePoint"/>
                    </mxGeometry>
                </mxCell>
                <mxCell id="uY0lWjrbDCF-Lmr9nMHr-81" value="Range" style="edgeLabel;html=1;align=center;verticalAlign=middle;resizable=0;points=[];" parent="uY0lWjrbDCF-Lmr9nMHr-79" vertex="1" connectable="0">
                    <mxGeometry x="0.2994" y="1" relative="1" as="geometry">
                        <mxPoint x="6" y="-1" as="offset"/>
                    </mxGeometry>
                </mxCell>
                <mxCell id="uY0lWjrbDCF-Lmr9nMHr-90" style="edgeStyle=none;rounded=0;orthogonalLoop=1;jettySize=auto;html=1;entryX=1;entryY=0.25;entryDx=0;entryDy=0;startArrow=classic;startFill=1;endArrow=none;endFill=0;" parent="jLY8G0JBw0-V70f6RSkC-1" source="uY0lWjrbDCF-Lmr9nMHr-80" target="uY0lWjrbDCF-Lmr9nMHr-86" edge="1">
                    <mxGeometry relative="1" as="geometry"/>
                </mxCell>
                <mxCell id="uY0lWjrbDCF-Lmr9nMHr-92" value="Range" style="edgeLabel;html=1;align=center;verticalAlign=middle;resizable=0;points=[];" parent="uY0lWjrbDCF-Lmr9nMHr-90" vertex="1" connectable="0">
                    <mxGeometry x="0.2742" y="-2" relative="1" as="geometry">
                        <mxPoint as="offset"/>
                    </mxGeometry>
                </mxCell>
                <mxCell id="uY0lWjrbDCF-Lmr9nMHr-80" value="String" style="ellipse;whiteSpace=wrap;html=1;" parent="jLY8G0JBw0-V70f6RSkC-1" vertex="1">
                    <mxGeometry x="1049" y="10" width="120" height="70" as="geometry"/>
                </mxCell>
                <mxCell id="uY0lWjrbDCF-Lmr9nMHr-86" value="FundName" style="rounded=0;whiteSpace=wrap;html=1;" parent="jLY8G0JBw0-V70f6RSkC-1" vertex="1">
                    <mxGeometry x="860" y="114" width="120" height="60" as="geometry"/>
                </mxCell>
                <mxCell id="uY0lWjrbDCF-Lmr9nMHr-93" value="Risk" style="rounded=0;whiteSpace=wrap;html=1;" parent="jLY8G0JBw0-V70f6RSkC-1" vertex="1">
                    <mxGeometry x="870" y="210" width="120" height="60" as="geometry"/>
                </mxCell>
                <mxCell id="uY0lWjrbDCF-Lmr9nMHr-98" value="" style="edgeStyle=none;rounded=0;orthogonalLoop=1;jettySize=auto;html=1;startArrow=classic;startFill=1;endArrow=none;endFill=0;" parent="jLY8G0JBw0-V70f6RSkC-1" source="uY0lWjrbDCF-Lmr9nMHr-97" target="uY0lWjrbDCF-Lmr9nMHr-93" edge="1">
                    <mxGeometry relative="1" as="geometry"/>
                </mxCell>
                <mxCell id="uY0lWjrbDCF-Lmr9nMHr-100" value="Range" style="edgeLabel;html=1;align=center;verticalAlign=middle;resizable=0;points=[];" parent="uY0lWjrbDCF-Lmr9nMHr-98" vertex="1" connectable="0">
                    <mxGeometry x="0.4835" y="2" relative="1" as="geometry">
                        <mxPoint x="14.39" y="-4.76" as="offset"/>
                    </mxGeometry>
                </mxCell>
                <mxCell id="uY0lWjrbDCF-Lmr9nMHr-97" value="Int" style="ellipse;whiteSpace=wrap;html=1;" parent="jLY8G0JBw0-V70f6RSkC-1" vertex="1">
                    <mxGeometry x="1049" y="200" width="120" height="70" as="geometry"/>
                </mxCell>
                <mxCell id="uY0lWjrbDCF-Lmr9nMHr-101" value="HoldRange" style="rounded=0;whiteSpace=wrap;html=1;" parent="jLY8G0JBw0-V70f6RSkC-1" vertex="1">
                    <mxGeometry x="870" y="305" width="120" height="60" as="geometry"/>
                </mxCell>
                <mxCell id="uY0lWjrbDCF-Lmr9nMHr-107" style="edgeStyle=none;rounded=0;orthogonalLoop=1;jettySize=auto;html=1;entryX=1;entryY=0.5;entryDx=0;entryDy=0;startArrow=classic;startFill=1;endArrow=none;endFill=0;" parent="jLY8G0JBw0-V70f6RSkC-1" source="uY0lWjrbDCF-Lmr9nMHr-105" target="uY0lWjrbDCF-Lmr9nMHr-101" edge="1">
                    <mxGeometry relative="1" as="geometry"/>
                </mxCell>
                <mxCell id="uY0lWjrbDCF-Lmr9nMHr-108" value="Range" style="edgeLabel;html=1;align=center;verticalAlign=middle;resizable=0;points=[];" parent="uY0lWjrbDCF-Lmr9nMHr-107" vertex="1" connectable="0">
                    <mxGeometry x="-0.3783" relative="1" as="geometry">
                        <mxPoint x="-10.39" y="-0.5200000000000001" as="offset"/>
                    </mxGeometry>
                </mxCell>
                <mxCell id="uY0lWjrbDCF-Lmr9nMHr-105" value="Float" style="ellipse;whiteSpace=wrap;html=1;" parent="jLY8G0JBw0-V70f6RSkC-1" vertex="1">
                    <mxGeometry x="1049" y="303" width="120" height="64" as="geometry"/>
                </mxCell>
            </root>
        </mxGraphModel>
    </diagram>
    <diagram id="bSTiF60WZfFgPv9VRSso" name="Class">
        &#xa;
        <mxGraphModel dx="672" dy="478" grid="1" gridSize="10" guides="1" tooltips="1" connect="1" arrows="1" fold="1" page="1" pageScale="1" pageWidth="1169" pageHeight="827" math="0" shadow="0">
            &#xa;
            <root>
                &#xa;
                <mxCell id="zY1Uop0uPamJXyzyRUhj-0"/>
                &#xa;
                <mxCell id="zY1Uop0uPamJXyzyRUhj-1" parent="zY1Uop0uPamJXyzyRUhj-0"/>
                &#xa;
                <mxCell id="tynLC350GoLql9uAeqAS-4" value="" style="edgeStyle=none;rounded=0;orthogonalLoop=1;jettySize=auto;html=1;" parent="zY1Uop0uPamJXyzyRUhj-1" source="zY1Uop0uPamJXyzyRUhj-7" target="tynLC350GoLql9uAeqAS-0" edge="1">
                    &#xa;
                    <mxGeometry relative="1" as="geometry"/>
                    &#xa;
                </mxCell>
                &#xa;
                <mxCell id="rqn1YAK3hk-CpIhvwjnv-4" value="" style="edgeStyle=none;rounded=0;orthogonalLoop=1;jettySize=auto;html=1;" parent="zY1Uop0uPamJXyzyRUhj-1" source="zY1Uop0uPamJXyzyRUhj-7" target="rqn1YAK3hk-CpIhvwjnv-0" edge="1">
                    &#xa;
                    <mxGeometry relative="1" as="geometry"/>
                    &#xa;
                </mxCell>
                &#xa;
                <mxCell id="zY1Uop0uPamJXyzyRUhj-7" value="Fund" style="swimlane;fontStyle=0;childLayout=stackLayout;horizontal=1;startSize=26;fillColor=none;horizontalStack=0;resizeParent=1;resizeParentMax=0;resizeLast=0;collapsible=1;marginBottom=0;" parent="zY1Uop0uPamJXyzyRUhj-1" vertex="1">
                    &#xa;
                    <mxGeometry x="180" y="40" width="140" height="156" as="geometry"/>
                    &#xa;
                </mxCell>
                &#xa;
                <mxCell id="zY1Uop0uPamJXyzyRUhj-8" value="+ Name: string" style="text;strokeColor=none;fillColor=none;align=left;verticalAlign=top;spacingLeft=4;spacingRight=4;overflow=hidden;rotatable=0;points=[[0,0.5],[1,0.5]];portConstraint=eastwest;" parent="zY1Uop0uPamJXyzyRUhj-7" vertex="1">
                    &#xa;
                    <mxGeometry y="26" width="140" height="26" as="geometry"/>
                    &#xa;
                </mxCell>
                &#xa;
                <mxCell id="zY1Uop0uPamJXyzyRUhj-9" value="+ Symbol: string" style="text;strokeColor=none;fillColor=none;align=left;verticalAlign=top;spacingLeft=4;spacingRight=4;overflow=hidden;rotatable=0;points=[[0,0.5],[1,0.5]];portConstraint=eastwest;" parent="zY1Uop0uPamJXyzyRUhj-7" vertex="1">
                    &#xa;
                    <mxGeometry y="52" width="140" height="26" as="geometry"/>
                    &#xa;
                </mxCell>
                &#xa;
                <mxCell id="zY1Uop0uPamJXyzyRUhj-10" value="+ Type: type" style="text;strokeColor=none;fillColor=none;align=left;verticalAlign=top;spacingLeft=4;spacingRight=4;overflow=hidden;rotatable=0;points=[[0,0.5],[1,0.5]];portConstraint=eastwest;" parent="zY1Uop0uPamJXyzyRUhj-7" vertex="1">
                    &#xa;
                    <mxGeometry y="78" width="140" height="26" as="geometry"/>
                    &#xa;
                </mxCell>
                &#xa;
                <mxCell id="rqn1YAK3hk-CpIhvwjnv-6" value="+ Start: Date" style="text;strokeColor=none;fillColor=none;align=left;verticalAlign=top;spacingLeft=4;spacingRight=4;overflow=hidden;rotatable=0;points=[[0,0.5],[1,0.5]];portConstraint=eastwest;" parent="zY1Uop0uPamJXyzyRUhj-7" vertex="1">
                    &#xa;
                    <mxGeometry y="104" width="140" height="26" as="geometry"/>
                    &#xa;
                </mxCell>
                &#xa;
                <mxCell id="Un2y6d7zAujWXZZdnZvO-0" value="+ Risk: int" style="text;strokeColor=none;fillColor=none;align=left;verticalAlign=top;spacingLeft=4;spacingRight=4;overflow=hidden;rotatable=0;points=[[0,0.5],[1,0.5]];portConstraint=eastwest;" parent="zY1Uop0uPamJXyzyRUhj-7" vertex="1">
                    &#xa;
                    <mxGeometry y="130" width="140" height="26" as="geometry"/>
                    &#xa;
                </mxCell>
                &#xa;
                <mxCell id="tynLC350GoLql9uAeqAS-0" value="Open-End Fund" style="swimlane;fontStyle=0;childLayout=stackLayout;horizontal=1;startSize=26;fillColor=none;horizontalStack=0;resizeParent=1;resizeParentMax=0;resizeLast=0;collapsible=1;marginBottom=0;" parent="zY1Uop0uPamJXyzyRUhj-1" vertex="1">
                    &#xa;
                    <mxGeometry x="60" y="260" width="140" height="52" as="geometry"/>
                    &#xa;
                </mxCell>
                &#xa;
                <mxCell id="tynLC350GoLql9uAeqAS-1" value="+ MarketStatus: string" style="text;strokeColor=none;fillColor=none;align=left;verticalAlign=top;spacingLeft=4;spacingRight=4;overflow=hidden;rotatable=0;points=[[0,0.5],[1,0.5]];portConstraint=eastwest;" parent="tynLC350GoLql9uAeqAS-0" vertex="1">
                    &#xa;
                    <mxGeometry y="26" width="140" height="26" as="geometry"/>
                    &#xa;
                </mxCell>
                &#xa;
                <mxCell id="rqn1YAK3hk-CpIhvwjnv-0" value="Closed-End Fund" style="swimlane;fontStyle=0;childLayout=stackLayout;horizontal=1;startSize=26;fillColor=none;horizontalStack=0;resizeParent=1;resizeParentMax=0;resizeLast=0;collapsible=1;marginBottom=0;" parent="zY1Uop0uPamJXyzyRUhj-1" vertex="1">
                    &#xa;
                    <mxGeometry x="320" y="260" width="140" height="52" as="geometry"/>
                    &#xa;
                </mxCell>
                &#xa;
                <mxCell id="rqn1YAK3hk-CpIhvwjnv-1" value="+ End: Date" style="text;strokeColor=none;fillColor=none;align=left;verticalAlign=top;spacingLeft=4;spacingRight=4;overflow=hidden;rotatable=0;points=[[0,0.5],[1,0.5]];portConstraint=eastwest;" parent="rqn1YAK3hk-CpIhvwjnv-0" vertex="1">
                    &#xa;
                    <mxGeometry y="26" width="140" height="26" as="geometry"/>
                    &#xa;
                </mxCell>
                &#xa;
                <mxCell id="rqn1YAK3hk-CpIhvwjnv-7" value="AMC (Assets Management Company)" style="swimlane;fontStyle=0;childLayout=stackLayout;horizontal=1;startSize=26;fillColor=none;horizontalStack=0;resizeParent=1;resizeParentMax=0;resizeLast=0;collapsible=1;marginBottom=0;" parent="zY1Uop0uPamJXyzyRUhj-1" vertex="1">
                    &#xa;
                    <mxGeometry x="585" y="200" width="220" height="52" as="geometry"/>
                    &#xa;
                </mxCell>
                &#xa;
                <mxCell id="rqn1YAK3hk-CpIhvwjnv-8" value="+ Name: string" style="text;strokeColor=none;fillColor=none;align=left;verticalAlign=top;spacingLeft=4;spacingRight=4;overflow=hidden;rotatable=0;points=[[0,0.5],[1,0.5]];portConstraint=eastwest;" parent="rqn1YAK3hk-CpIhvwjnv-7" vertex="1">
                    &#xa;
                    <mxGeometry y="26" width="220" height="26" as="geometry"/>
                    &#xa;
                </mxCell>
                &#xa;
                <mxCell id="rjxzrLwYvsQWXRGfJ_Ur-0" value="Assets" style="swimlane;fontStyle=0;childLayout=stackLayout;horizontal=1;startSize=26;fillColor=none;horizontalStack=0;resizeParent=1;resizeParentMax=0;resizeLast=0;collapsible=1;marginBottom=0;" parent="zY1Uop0uPamJXyzyRUhj-1" vertex="1">
                    &#xa;
                    <mxGeometry x="590" y="70" width="140" height="104" as="geometry"/>
                    &#xa;
                </mxCell>
                &#xa;
                <mxCell id="rjxzrLwYvsQWXRGfJ_Ur-1" value="+ Name: string" style="text;strokeColor=none;fillColor=none;align=left;verticalAlign=top;spacingLeft=4;spacingRight=4;overflow=hidden;rotatable=0;points=[[0,0.5],[1,0.5]];portConstraint=eastwest;" parent="rjxzrLwYvsQWXRGfJ_Ur-0" vertex="1">
                    &#xa;
                    <mxGeometry y="26" width="140" height="26" as="geometry"/>
                    &#xa;
                </mxCell>
                &#xa;
                <mxCell id="dyuZOuiTwikHXSty3wBN-0" value="+ Symbol: string" style="text;strokeColor=none;fillColor=none;align=left;verticalAlign=top;spacingLeft=4;spacingRight=4;overflow=hidden;rotatable=0;points=[[0,0.5],[1,0.5]];portConstraint=eastwest;" parent="rjxzrLwYvsQWXRGfJ_Ur-0" vertex="1">
                    &#xa;
                    <mxGeometry y="52" width="140" height="26" as="geometry"/>
                    &#xa;
                </mxCell>
                &#xa;
                <mxCell id="rjxzrLwYvsQWXRGfJ_Ur-2" value="+ Type: AssetType" style="text;strokeColor=none;fillColor=none;align=left;verticalAlign=top;spacingLeft=4;spacingRight=4;overflow=hidden;rotatable=0;points=[[0,0.5],[1,0.5]];portConstraint=eastwest;" parent="rjxzrLwYvsQWXRGfJ_Ur-0" vertex="1">
                    &#xa;
                    <mxGeometry y="78" width="140" height="26" as="geometry"/>
                    &#xa;
                </mxCell>
                &#xa;
                <mxCell id="w2GpvtF78NjleUGXTXqq-0" value="Percentage" style="swimlane;fontStyle=0;childLayout=stackLayout;horizontal=1;startSize=26;fillColor=none;horizontalStack=0;resizeParent=1;resizeParentMax=0;resizeLast=0;collapsible=1;marginBottom=0;" parent="zY1Uop0uPamJXyzyRUhj-1" vertex="1">
                    &#xa;
                    <mxGeometry x="590" y="360" width="140" height="52" as="geometry"/>
                    &#xa;
                </mxCell>
                &#xa;
                <mxCell id="w2GpvtF78NjleUGXTXqq-1" value="+ value: double" style="text;strokeColor=none;fillColor=none;align=left;verticalAlign=top;spacingLeft=4;spacingRight=4;overflow=hidden;rotatable=0;points=[[0,0.5],[1,0.5]];portConstraint=eastwest;" parent="w2GpvtF78NjleUGXTXqq-0" vertex="1">
                    &#xa;
                    <mxGeometry y="26" width="140" height="26" as="geometry"/>
                    &#xa;
                </mxCell>
                &#xa;
                <mxCell id="w2GpvtF78NjleUGXTXqq-4" value="Type" style="swimlane;fontStyle=0;childLayout=stackLayout;horizontal=1;startSize=26;fillColor=none;horizontalStack=0;resizeParent=1;resizeParentMax=0;resizeLast=0;collapsible=1;marginBottom=0;" parent="zY1Uop0uPamJXyzyRUhj-1" vertex="1">
                    &#xa;
                    <mxGeometry x="590" y="440" width="140" height="52" as="geometry"/>
                    &#xa;
                </mxCell>
                &#xa;
                <mxCell id="w2GpvtF78NjleUGXTXqq-5" value="+ name: string" style="text;strokeColor=none;fillColor=none;align=left;verticalAlign=top;spacingLeft=4;spacingRight=4;overflow=hidden;rotatable=0;points=[[0,0.5],[1,0.5]];portConstraint=eastwest;" parent="w2GpvtF78NjleUGXTXqq-4" vertex="1">
                    &#xa;
                    <mxGeometry y="26" width="140" height="26" as="geometry"/>
                    &#xa;
                </mxCell>
                &#xa;
                <mxCell id="w2GpvtF78NjleUGXTXqq-8" value="AssetType" style="swimlane;fontStyle=0;childLayout=stackLayout;horizontal=1;startSize=26;fillColor=none;horizontalStack=0;resizeParent=1;resizeParentMax=0;resizeLast=0;collapsible=1;marginBottom=0;" parent="zY1Uop0uPamJXyzyRUhj-1" vertex="1">
                    &#xa;
                    <mxGeometry x="590" y="280" width="140" height="52" as="geometry"/>
                    &#xa;
                </mxCell>
                &#xa;
                <mxCell id="w2GpvtF78NjleUGXTXqq-9" value="+ name: string" style="text;strokeColor=none;fillColor=none;align=left;verticalAlign=top;spacingLeft=4;spacingRight=4;overflow=hidden;rotatable=0;points=[[0,0.5],[1,0.5]];portConstraint=eastwest;" parent="w2GpvtF78NjleUGXTXqq-8" vertex="1">
                    &#xa;
                    <mxGeometry y="26" width="140" height="26" as="geometry"/>
                    &#xa;
                </mxCell>
                &#xa;
            </root>
            &#xa;
        </mxGraphModel>
        &#xa;
    </diagram>
    <diagram id="1Bc5kPwuiwD5k15zgibk" name="ER-Diagram">
        &#xa;
        <mxGraphModel dx="672" dy="478" grid="1" gridSize="10" guides="1" tooltips="1" connect="1" arrows="1" fold="1" page="1" pageScale="1" pageWidth="1169" pageHeight="827" math="0" shadow="0">
            &#xa;
            <root>
                &#xa;
                <mxCell id="dbvuYdCFzc525z1leOVs-0"/>
                &#xa;
                <mxCell id="dbvuYdCFzc525z1leOVs-1" parent="dbvuYdCFzc525z1leOVs-0"/>
                &#xa;
                <mxCell id="2FOjcsNnqAx9vBAd7p9R-31" value="Assets" style="shape=table;startSize=30;container=1;collapsible=1;childLayout=tableLayout;fixedRows=1;rowLines=0;fontStyle=1;align=center;resizeLast=1;" parent="dbvuYdCFzc525z1leOVs-1" vertex="1">
                    &#xa;
                    <mxGeometry x="140" y="400" width="180" height="160.0000000000001" as="geometry"/>
                    &#xa;
                </mxCell>
                &#xa;
                <mxCell id="2FOjcsNnqAx9vBAd7p9R-32" value="" style="shape=partialRectangle;collapsible=0;dropTarget=0;pointerEvents=0;fillColor=none;top=0;left=0;bottom=1;right=0;points=[[0,0.5],[1,0.5]];portConstraint=eastwest;" parent="2FOjcsNnqAx9vBAd7p9R-31" vertex="1">
                    &#xa;
                    <mxGeometry y="30" width="180" height="30" as="geometry"/>
                    &#xa;
                </mxCell>
                &#xa;
                <mxCell id="2FOjcsNnqAx9vBAd7p9R-33" value="PK" style="shape=partialRectangle;connectable=0;fillColor=none;top=0;left=0;bottom=0;right=0;fontStyle=1;overflow=hidden;" parent="2FOjcsNnqAx9vBAd7p9R-32" vertex="1">
                    &#xa;
                    <mxGeometry width="30" height="30" as="geometry"/>
                    &#xa;
                </mxCell>
                &#xa;
                <mxCell id="2FOjcsNnqAx9vBAd7p9R-34" value="assestID" style="shape=partialRectangle;connectable=0;fillColor=none;top=0;left=0;bottom=0;right=0;align=left;spacingLeft=6;fontStyle=5;overflow=hidden;" parent="2FOjcsNnqAx9vBAd7p9R-32" vertex="1">
                    &#xa;
                    <mxGeometry x="30" width="150" height="30" as="geometry"/>
                    &#xa;
                </mxCell>
                &#xa;
                <mxCell id="2FOjcsNnqAx9vBAd7p9R-35" value="" style="shape=partialRectangle;collapsible=0;dropTarget=0;pointerEvents=0;fillColor=none;top=0;left=0;bottom=0;right=0;points=[[0,0.5],[1,0.5]];portConstraint=eastwest;" parent="2FOjcsNnqAx9vBAd7p9R-31" vertex="1">
                    &#xa;
                    <mxGeometry y="60" width="180" height="30" as="geometry"/>
                    &#xa;
                </mxCell>
                &#xa;
                <mxCell id="2FOjcsNnqAx9vBAd7p9R-36" value="" style="shape=partialRectangle;connectable=0;fillColor=none;top=0;left=0;bottom=0;right=0;editable=1;overflow=hidden;" parent="2FOjcsNnqAx9vBAd7p9R-35" vertex="1">
                    &#xa;
                    <mxGeometry width="30" height="30" as="geometry"/>
                    &#xa;
                </mxCell>
                &#xa;
                <mxCell id="2FOjcsNnqAx9vBAd7p9R-37" value="name" style="shape=partialRectangle;connectable=0;fillColor=none;top=0;left=0;bottom=0;right=0;align=left;spacingLeft=6;overflow=hidden;" parent="2FOjcsNnqAx9vBAd7p9R-35" vertex="1">
                    &#xa;
                    <mxGeometry x="30" width="150" height="30" as="geometry"/>
                    &#xa;
                </mxCell>
                &#xa;
                <mxCell id="2FOjcsNnqAx9vBAd7p9R-38" value="" style="shape=partialRectangle;collapsible=0;dropTarget=0;pointerEvents=0;fillColor=none;top=0;left=0;bottom=0;right=0;points=[[0,0.5],[1,0.5]];portConstraint=eastwest;" parent="2FOjcsNnqAx9vBAd7p9R-31" vertex="1">
                    &#xa;
                    <mxGeometry y="90" width="180" height="30" as="geometry"/>
                    &#xa;
                </mxCell>
                &#xa;
                <mxCell id="2FOjcsNnqAx9vBAd7p9R-39" value="" style="shape=partialRectangle;connectable=0;fillColor=none;top=0;left=0;bottom=0;right=0;editable=1;overflow=hidden;" parent="2FOjcsNnqAx9vBAd7p9R-38" vertex="1">
                    &#xa;
                    <mxGeometry width="30" height="30" as="geometry"/>
                    &#xa;
                </mxCell>
                &#xa;
                <mxCell id="2FOjcsNnqAx9vBAd7p9R-40" value="provider" style="shape=partialRectangle;connectable=0;fillColor=none;top=0;left=0;bottom=0;right=0;align=left;spacingLeft=6;overflow=hidden;" parent="2FOjcsNnqAx9vBAd7p9R-38" vertex="1">
                    &#xa;
                    <mxGeometry x="30" width="150" height="30" as="geometry"/>
                    &#xa;
                </mxCell>
                &#xa;
                <mxCell id="2FOjcsNnqAx9vBAd7p9R-41" value="" style="shape=partialRectangle;collapsible=0;dropTarget=0;pointerEvents=0;fillColor=none;top=0;left=0;bottom=0;right=0;points=[[0,0.5],[1,0.5]];portConstraint=eastwest;" parent="2FOjcsNnqAx9vBAd7p9R-31" vertex="1">
                    &#xa;
                    <mxGeometry y="120" width="180" height="30" as="geometry"/>
                    &#xa;
                </mxCell>
                &#xa;
                <mxCell id="2FOjcsNnqAx9vBAd7p9R-42" value="FK" style="shape=partialRectangle;connectable=0;fillColor=none;top=0;left=0;bottom=0;right=0;editable=1;overflow=hidden;" parent="2FOjcsNnqAx9vBAd7p9R-41" vertex="1">
                    &#xa;
                    <mxGeometry width="30" height="30" as="geometry"/>
                    &#xa;
                </mxCell>
                &#xa;
                <mxCell id="2FOjcsNnqAx9vBAd7p9R-43" value="assetType" style="shape=partialRectangle;connectable=0;fillColor=none;top=0;left=0;bottom=0;right=0;align=left;spacingLeft=6;overflow=hidden;" parent="2FOjcsNnqAx9vBAd7p9R-41" vertex="1">
                    &#xa;
                    <mxGeometry x="30" width="150" height="30" as="geometry"/>
                    &#xa;
                </mxCell>
                &#xa;
                <mxCell id="2FOjcsNnqAx9vBAd7p9R-65" style="edgeStyle=orthogonalEdgeStyle;rounded=0;orthogonalLoop=1;jettySize=auto;html=1;entryX=1;entryY=0.5;entryDx=0;entryDy=0;startArrow=none;startFill=0;endArrow=none;endFill=0;exitX=0;exitY=0.5;exitDx=0;exitDy=0;" parent="dbvuYdCFzc525z1leOVs-1" source="2FOjcsNnqAx9vBAd7p9R-45" target="2FOjcsNnqAx9vBAd7p9R-41" edge="1">
                    &#xa;
                    <mxGeometry relative="1" as="geometry"/>
                    &#xa;
                </mxCell>
                &#xa;
                <mxCell id="2FOjcsNnqAx9vBAd7p9R-44" value="AssetTypes" style="shape=table;startSize=30;container=1;collapsible=1;childLayout=tableLayout;fixedRows=1;rowLines=0;fontStyle=1;align=center;resizeLast=1;" parent="dbvuYdCFzc525z1leOVs-1" vertex="1">
                    &#xa;
                    <mxGeometry x="540" y="420" width="180" height="86" as="geometry"/>
                    &#xa;
                </mxCell>
                &#xa;
                <mxCell id="2FOjcsNnqAx9vBAd7p9R-45" value="" style="shape=partialRectangle;collapsible=0;dropTarget=0;pointerEvents=0;fillColor=none;top=0;left=0;bottom=1;right=0;points=[[0,0.5],[1,0.5]];portConstraint=eastwest;" parent="2FOjcsNnqAx9vBAd7p9R-44" vertex="1">
                    &#xa;
                    <mxGeometry y="30" width="180" height="30" as="geometry"/>
                    &#xa;
                </mxCell>
                &#xa;
                <mxCell id="2FOjcsNnqAx9vBAd7p9R-46" value="PK" style="shape=partialRectangle;connectable=0;fillColor=none;top=0;left=0;bottom=0;right=0;fontStyle=1;overflow=hidden;" parent="2FOjcsNnqAx9vBAd7p9R-45" vertex="1">
                    &#xa;
                    <mxGeometry width="30" height="30" as="geometry"/>
                    &#xa;
                </mxCell>
                &#xa;
                <mxCell id="2FOjcsNnqAx9vBAd7p9R-47" value="assetTypeID" style="shape=partialRectangle;connectable=0;fillColor=none;top=0;left=0;bottom=0;right=0;align=left;spacingLeft=6;fontStyle=5;overflow=hidden;" parent="2FOjcsNnqAx9vBAd7p9R-45" vertex="1">
                    &#xa;
                    <mxGeometry x="30" width="150" height="30" as="geometry"/>
                    &#xa;
                </mxCell>
                &#xa;
                <mxCell id="2FOjcsNnqAx9vBAd7p9R-48" value="" style="shape=partialRectangle;collapsible=0;dropTarget=0;pointerEvents=0;fillColor=none;top=0;left=0;bottom=0;right=0;points=[[0,0.5],[1,0.5]];portConstraint=eastwest;" parent="2FOjcsNnqAx9vBAd7p9R-44" vertex="1">
                    &#xa;
                    <mxGeometry y="60" width="180" height="26" as="geometry"/>
                    &#xa;
                </mxCell>
                &#xa;
                <mxCell id="2FOjcsNnqAx9vBAd7p9R-49" value="" style="shape=partialRectangle;connectable=0;fillColor=none;top=0;left=0;bottom=0;right=0;editable=1;overflow=hidden;" parent="2FOjcsNnqAx9vBAd7p9R-48" vertex="1">
                    &#xa;
                    <mxGeometry width="30" height="26" as="geometry"/>
                    &#xa;
                </mxCell>
                &#xa;
                <mxCell id="2FOjcsNnqAx9vBAd7p9R-50" value="name" style="shape=partialRectangle;connectable=0;fillColor=none;top=0;left=0;bottom=0;right=0;align=left;spacingLeft=6;overflow=hidden;" parent="2FOjcsNnqAx9vBAd7p9R-48" vertex="1">
                    &#xa;
                    <mxGeometry x="30" width="150" height="26" as="geometry"/>
                    &#xa;
                </mxCell>
                &#xa;
                <mxCell id="2FOjcsNnqAx9vBAd7p9R-60" value="" style="group" parent="dbvuYdCFzc525z1leOVs-1" vertex="1" connectable="0">
                    &#xa;
                    <mxGeometry x="150" y="110" width="180" height="220" as="geometry"/>
                    &#xa;
                </mxCell>
                &#xa;
                <mxCell id="xoCkjVo_DVZhpEiSkTV9-0" value="MutaulFund" style="shape=table;startSize=30;container=1;collapsible=1;childLayout=tableLayout;fixedRows=1;rowLines=0;fontStyle=1;align=center;resizeLast=1;" parent="2FOjcsNnqAx9vBAd7p9R-60" vertex="1">
                    &#xa;
                    <mxGeometry x="-10" width="180" height="220" as="geometry"/>
                    &#xa;
                </mxCell>
                &#xa;
                <mxCell id="xoCkjVo_DVZhpEiSkTV9-1" value="" style="shape=partialRectangle;collapsible=0;dropTarget=0;pointerEvents=0;fillColor=none;top=0;left=0;bottom=1;right=0;points=[[0,0.5],[1,0.5]];portConstraint=eastwest;" parent="xoCkjVo_DVZhpEiSkTV9-0" vertex="1">
                    &#xa;
                    <mxGeometry y="30" width="180" height="30" as="geometry"/>
                    &#xa;
                </mxCell>
                &#xa;
                <mxCell id="xoCkjVo_DVZhpEiSkTV9-2" value="PK" style="shape=partialRectangle;connectable=0;fillColor=none;top=0;left=0;bottom=0;right=0;fontStyle=1;overflow=hidden;" parent="xoCkjVo_DVZhpEiSkTV9-1" vertex="1">
                    &#xa;
                    <mxGeometry width="30" height="30" as="geometry"/>
                    &#xa;
                </mxCell>
                &#xa;
                <mxCell id="xoCkjVo_DVZhpEiSkTV9-3" value="FundID" style="shape=partialRectangle;connectable=0;fillColor=none;top=0;left=0;bottom=0;right=0;align=left;spacingLeft=6;fontStyle=5;overflow=hidden;" parent="xoCkjVo_DVZhpEiSkTV9-1" vertex="1">
                    &#xa;
                    <mxGeometry x="30" width="150" height="30" as="geometry"/>
                    &#xa;
                </mxCell>
                &#xa;
                <mxCell id="xoCkjVo_DVZhpEiSkTV9-4" value="" style="shape=partialRectangle;collapsible=0;dropTarget=0;pointerEvents=0;fillColor=none;top=0;left=0;bottom=0;right=0;points=[[0,0.5],[1,0.5]];portConstraint=eastwest;" parent="xoCkjVo_DVZhpEiSkTV9-0" vertex="1">
                    &#xa;
                    <mxGeometry y="60" width="180" height="30" as="geometry"/>
                    &#xa;
                </mxCell>
                &#xa;
                <mxCell id="xoCkjVo_DVZhpEiSkTV9-5" value="" style="shape=partialRectangle;connectable=0;fillColor=none;top=0;left=0;bottom=0;right=0;editable=1;overflow=hidden;" parent="xoCkjVo_DVZhpEiSkTV9-4" vertex="1">
                    &#xa;
                    <mxGeometry width="30" height="30" as="geometry"/>
                    &#xa;
                </mxCell>
                &#xa;
                <mxCell id="xoCkjVo_DVZhpEiSkTV9-6" value="NAV" style="shape=partialRectangle;connectable=0;fillColor=none;top=0;left=0;bottom=0;right=0;align=left;spacingLeft=6;overflow=hidden;" parent="xoCkjVo_DVZhpEiSkTV9-4" vertex="1">
                    &#xa;
                    <mxGeometry x="30" width="150" height="30" as="geometry"/>
                    &#xa;
                </mxCell>
                &#xa;
                <mxCell id="xoCkjVo_DVZhpEiSkTV9-7" value="" style="shape=partialRectangle;collapsible=0;dropTarget=0;pointerEvents=0;fillColor=none;top=0;left=0;bottom=0;right=0;points=[[0,0.5],[1,0.5]];portConstraint=eastwest;" parent="xoCkjVo_DVZhpEiSkTV9-0" vertex="1">
                    &#xa;
                    <mxGeometry y="90" width="180" height="30" as="geometry"/>
                    &#xa;
                </mxCell>
                &#xa;
                <mxCell id="xoCkjVo_DVZhpEiSkTV9-8" value="" style="shape=partialRectangle;connectable=0;fillColor=none;top=0;left=0;bottom=0;right=0;editable=1;overflow=hidden;" parent="xoCkjVo_DVZhpEiSkTV9-7" vertex="1">
                    &#xa;
                    <mxGeometry width="30" height="30" as="geometry"/>
                    &#xa;
                </mxCell>
                &#xa;
                <mxCell id="xoCkjVo_DVZhpEiSkTV9-9" value="BID" style="shape=partialRectangle;connectable=0;fillColor=none;top=0;left=0;bottom=0;right=0;align=left;spacingLeft=6;overflow=hidden;" parent="xoCkjVo_DVZhpEiSkTV9-7" vertex="1">
                    &#xa;
                    <mxGeometry x="30" width="150" height="30" as="geometry"/>
                    &#xa;
                </mxCell>
                &#xa;
                <mxCell id="xoCkjVo_DVZhpEiSkTV9-10" value="" style="shape=partialRectangle;collapsible=0;dropTarget=0;pointerEvents=0;fillColor=none;top=0;left=0;bottom=0;right=0;points=[[0,0.5],[1,0.5]];portConstraint=eastwest;" parent="xoCkjVo_DVZhpEiSkTV9-0" vertex="1">
                    &#xa;
                    <mxGeometry y="120" width="180" height="30" as="geometry"/>
                    &#xa;
                </mxCell>
                &#xa;
                <mxCell id="xoCkjVo_DVZhpEiSkTV9-11" value="" style="shape=partialRectangle;connectable=0;fillColor=none;top=0;left=0;bottom=0;right=0;editable=1;overflow=hidden;" parent="xoCkjVo_DVZhpEiSkTV9-10" vertex="1">
                    &#xa;
                    <mxGeometry width="30" height="30" as="geometry"/>
                    &#xa;
                </mxCell>
                &#xa;
                <mxCell id="xoCkjVo_DVZhpEiSkTV9-12" value="ASK" style="shape=partialRectangle;connectable=0;fillColor=none;top=0;left=0;bottom=0;right=0;align=left;spacingLeft=6;overflow=hidden;" parent="xoCkjVo_DVZhpEiSkTV9-10" vertex="1">
                    &#xa;
                    <mxGeometry x="30" width="150" height="30" as="geometry"/>
                    &#xa;
                </mxCell>
                &#xa;
                <mxCell id="xoCkjVo_DVZhpEiSkTV9-13" value="updateAt" style="shape=partialRectangle;connectable=0;fillColor=none;top=0;left=0;bottom=0;right=0;align=left;spacingLeft=6;overflow=hidden;" parent="2FOjcsNnqAx9vBAd7p9R-60" vertex="1">
                    &#xa;
                    <mxGeometry x="20" y="184.7442105263158" width="150" height="34.73684210526316" as="geometry"/>
                    &#xa;
                </mxCell>
                &#xa;
                <mxCell id="2FOjcsNnqAx9vBAd7p9R-70" value="name" style="shape=partialRectangle;connectable=0;fillColor=none;top=0;left=0;bottom=0;right=0;align=left;spacingLeft=6;overflow=hidden;" parent="2FOjcsNnqAx9vBAd7p9R-60" vertex="1">
                    &#xa;
                    <mxGeometry x="20" y="150.00421052631583" width="150" height="34.73684210526316" as="geometry"/>
                    &#xa;
                </mxCell>
                &#xa;
                <mxCell id="2FOjcsNnqAx9vBAd7p9R-64" value="" style="group" parent="dbvuYdCFzc525z1leOVs-1" vertex="1" connectable="0">
                    &#xa;
                    <mxGeometry x="530" y="110" width="180" height="190" as="geometry"/>
                    &#xa;
                </mxCell>
                &#xa;
                <mxCell id="2FOjcsNnqAx9vBAd7p9R-0" value="InvestIn" style="shape=table;startSize=30;container=1;collapsible=1;childLayout=tableLayout;fixedRows=1;rowLines=0;fontStyle=1;align=center;resizeLast=1;" parent="2FOjcsNnqAx9vBAd7p9R-64" vertex="1">
                    &#xa;
                    <mxGeometry width="180" height="190" as="geometry"/>
                    &#xa;
                </mxCell>
                &#xa;
                <mxCell id="2FOjcsNnqAx9vBAd7p9R-1" value="" style="shape=partialRectangle;collapsible=0;dropTarget=0;pointerEvents=0;fillColor=none;top=0;left=0;bottom=1;right=0;points=[[0,0.5],[1,0.5]];portConstraint=eastwest;" parent="2FOjcsNnqAx9vBAd7p9R-0" vertex="1">
                    &#xa;
                    <mxGeometry y="30" width="180" height="30" as="geometry"/>
                    &#xa;
                </mxCell>
                &#xa;
                <mxCell id="2FOjcsNnqAx9vBAd7p9R-2" value="PK" style="shape=partialRectangle;connectable=0;fillColor=none;top=0;left=0;bottom=0;right=0;fontStyle=1;overflow=hidden;" parent="2FOjcsNnqAx9vBAd7p9R-1" vertex="1">
                    &#xa;
                    <mxGeometry width="30" height="30" as="geometry"/>
                    &#xa;
                </mxCell>
                &#xa;
                <mxCell id="2FOjcsNnqAx9vBAd7p9R-3" value="investInID" style="shape=partialRectangle;connectable=0;fillColor=none;top=0;left=0;bottom=0;right=0;align=left;spacingLeft=6;fontStyle=5;overflow=hidden;" parent="2FOjcsNnqAx9vBAd7p9R-1" vertex="1">
                    &#xa;
                    <mxGeometry x="30" width="150" height="30" as="geometry"/>
                    &#xa;
                </mxCell>
                &#xa;
                <mxCell id="2FOjcsNnqAx9vBAd7p9R-4" value="" style="shape=partialRectangle;collapsible=0;dropTarget=0;pointerEvents=0;fillColor=none;top=0;left=0;bottom=0;right=0;points=[[0,0.5],[1,0.5]];portConstraint=eastwest;" parent="2FOjcsNnqAx9vBAd7p9R-0" vertex="1">
                    &#xa;
                    <mxGeometry y="60" width="180" height="30" as="geometry"/>
                    &#xa;
                </mxCell>
                &#xa;
                <mxCell id="2FOjcsNnqAx9vBAd7p9R-5" value="" style="shape=partialRectangle;connectable=0;fillColor=none;top=0;left=0;bottom=0;right=0;editable=1;overflow=hidden;" parent="2FOjcsNnqAx9vBAd7p9R-4" vertex="1">
                    &#xa;
                    <mxGeometry width="30" height="30" as="geometry"/>
                    &#xa;
                </mxCell>
                &#xa;
                <mxCell id="2FOjcsNnqAx9vBAd7p9R-6" value="name " style="shape=partialRectangle;connectable=0;fillColor=none;top=0;left=0;bottom=0;right=0;align=left;spacingLeft=6;overflow=hidden;" parent="2FOjcsNnqAx9vBAd7p9R-4" vertex="1">
                    &#xa;
                    <mxGeometry x="30" width="150" height="30" as="geometry"/>
                    &#xa;
                </mxCell>
                &#xa;
                <mxCell id="2FOjcsNnqAx9vBAd7p9R-7" value="" style="shape=partialRectangle;collapsible=0;dropTarget=0;pointerEvents=0;fillColor=none;top=0;left=0;bottom=0;right=0;points=[[0,0.5],[1,0.5]];portConstraint=eastwest;" parent="2FOjcsNnqAx9vBAd7p9R-0" vertex="1">
                    &#xa;
                    <mxGeometry y="90" width="180" height="30" as="geometry"/>
                    &#xa;
                </mxCell>
                &#xa;
                <mxCell id="2FOjcsNnqAx9vBAd7p9R-8" value="" style="shape=partialRectangle;connectable=0;fillColor=none;top=0;left=0;bottom=0;right=0;editable=1;overflow=hidden;" parent="2FOjcsNnqAx9vBAd7p9R-7" vertex="1">
                    &#xa;
                    <mxGeometry width="30" height="30" as="geometry"/>
                    &#xa;
                </mxCell>
                &#xa;
                <mxCell id="2FOjcsNnqAx9vBAd7p9R-9" value="percentage" style="shape=partialRectangle;connectable=0;fillColor=none;top=0;left=0;bottom=0;right=0;align=left;spacingLeft=6;overflow=hidden;" parent="2FOjcsNnqAx9vBAd7p9R-7" vertex="1">
                    &#xa;
                    <mxGeometry x="30" width="150" height="30" as="geometry"/>
                    &#xa;
                </mxCell>
                &#xa;
                <mxCell id="2FOjcsNnqAx9vBAd7p9R-10" value="" style="shape=partialRectangle;collapsible=0;dropTarget=0;pointerEvents=0;fillColor=none;top=0;left=0;bottom=0;right=0;points=[[0,0.5],[1,0.5]];portConstraint=eastwest;" parent="2FOjcsNnqAx9vBAd7p9R-0" vertex="1">
                    &#xa;
                    <mxGeometry y="120" width="180" height="30" as="geometry"/>
                    &#xa;
                </mxCell>
                &#xa;
                <mxCell id="2FOjcsNnqAx9vBAd7p9R-11" value="FK" style="shape=partialRectangle;connectable=0;fillColor=none;top=0;left=0;bottom=0;right=0;editable=1;overflow=hidden;" parent="2FOjcsNnqAx9vBAd7p9R-10" vertex="1">
                    &#xa;
                    <mxGeometry width="30" height="30" as="geometry"/>
                    &#xa;
                </mxCell>
                &#xa;
                <mxCell id="2FOjcsNnqAx9vBAd7p9R-12" value="fundID" style="shape=partialRectangle;connectable=0;fillColor=none;top=0;left=0;bottom=0;right=0;align=left;spacingLeft=6;overflow=hidden;" parent="2FOjcsNnqAx9vBAd7p9R-10" vertex="1">
                    &#xa;
                    <mxGeometry x="30" width="150" height="30" as="geometry"/>
                    &#xa;
                </mxCell>
                &#xa;
                <mxCell id="2FOjcsNnqAx9vBAd7p9R-61" value="" style="shape=partialRectangle;collapsible=0;dropTarget=0;pointerEvents=0;fillColor=none;top=0;left=0;bottom=0;right=0;points=[[0,0.5],[1,0.5]];portConstraint=eastwest;" parent="2FOjcsNnqAx9vBAd7p9R-64" vertex="1">
                    &#xa;
                    <mxGeometry y="150" width="180" height="30" as="geometry"/>
                    &#xa;
                </mxCell>
                &#xa;
                <mxCell id="2FOjcsNnqAx9vBAd7p9R-62" value="FK" style="shape=partialRectangle;connectable=0;fillColor=none;top=0;left=0;bottom=0;right=0;editable=1;overflow=hidden;" parent="2FOjcsNnqAx9vBAd7p9R-61" vertex="1">
                    &#xa;
                    <mxGeometry width="30" height="30" as="geometry"/>
                    &#xa;
                </mxCell>
                &#xa;
                <mxCell id="2FOjcsNnqAx9vBAd7p9R-63" value="assetsID" style="shape=partialRectangle;connectable=0;fillColor=none;top=0;left=0;bottom=0;right=0;align=left;spacingLeft=6;overflow=hidden;" parent="2FOjcsNnqAx9vBAd7p9R-61" vertex="1">
                    &#xa;
                    <mxGeometry x="30" width="150" height="30" as="geometry"/>
                    &#xa;
                </mxCell>
                &#xa;
                <mxCell id="2FOjcsNnqAx9vBAd7p9R-67" style="edgeStyle=orthogonalEdgeStyle;rounded=0;orthogonalLoop=1;jettySize=auto;html=1;exitX=1;exitY=0.5;exitDx=0;exitDy=0;startArrow=none;startFill=0;endArrow=none;endFill=0;entryX=0;entryY=0.5;entryDx=0;entryDy=0;" parent="dbvuYdCFzc525z1leOVs-1" source="xoCkjVo_DVZhpEiSkTV9-1" target="2FOjcsNnqAx9vBAd7p9R-10" edge="1">
                    &#xa;
                    <mxGeometry relative="1" as="geometry">
                        &#xa;
                        <mxPoint x="450" y="270" as="targetPoint"/>
                        &#xa;
                    </mxGeometry>
                    &#xa;
                </mxCell>
                &#xa;
                <mxCell id="2FOjcsNnqAx9vBAd7p9R-69" style="edgeStyle=orthogonalEdgeStyle;rounded=0;orthogonalLoop=1;jettySize=auto;html=1;exitX=1;exitY=0.5;exitDx=0;exitDy=0;startArrow=none;startFill=0;endArrow=none;endFill=0;entryX=0;entryY=0.5;entryDx=0;entryDy=0;" parent="dbvuYdCFzc525z1leOVs-1" source="2FOjcsNnqAx9vBAd7p9R-32" target="2FOjcsNnqAx9vBAd7p9R-61" edge="1">
                    &#xa;
                    <mxGeometry relative="1" as="geometry">
                        &#xa;
                        <mxPoint x="450" y="260" as="targetPoint"/>
                        &#xa;
                    </mxGeometry>
                    &#xa;
                </mxCell>
                &#xa;
            </root>
            &#xa;
        </mxGraphModel>
        &#xa;
    </diagram>
    <diagram id="Fs_XZKVafL_LRJ8MUJ6q" name="Decision making">
        &#xa;
        <mxGraphModel dx="754" dy="956" grid="1" gridSize="10" guides="1" tooltips="1" connect="1" arrows="1" fold="1" page="1" pageScale="1" pageWidth="1169" pageHeight="827" math="0" shadow="0">
            &#xa;
            <root>
                &#xa;
                <mxCell id="xbe-5ZWVzaZNOsKrhAvo-0"/>
                &#xa;
                <mxCell id="xbe-5ZWVzaZNOsKrhAvo-1" parent="xbe-5ZWVzaZNOsKrhAvo-0"/>
                &#xa;
                <mxCell id="xbe-5ZWVzaZNOsKrhAvo-3" style="rounded=0;orthogonalLoop=1;jettySize=auto;html=1;" parent="xbe-5ZWVzaZNOsKrhAvo-1" source="xbe-5ZWVzaZNOsKrhAvo-2" target="xbe-5ZWVzaZNOsKrhAvo-4" edge="1">
                    &#xa;
                    <mxGeometry relative="1" as="geometry">
                        &#xa;
                        <mxPoint x="330" y="299.9999999999999" as="targetPoint"/>
                        &#xa;
                    </mxGeometry>
                    &#xa;
                </mxCell>
                &#xa;
                <mxCell id="xbe-5ZWVzaZNOsKrhAvo-2" value="Decision Mutual Fund" style="ellipse;whiteSpace=wrap;html=1;" parent="xbe-5ZWVzaZNOsKrhAvo-1" vertex="1">
                    &#xa;
                    <mxGeometry x="530" y="95" width="200" height="110" as="geometry"/>
                    &#xa;
                </mxCell>
                &#xa;
                <mxCell id="xbe-5ZWVzaZNOsKrhAvo-5" style="edgeStyle=none;rounded=0;orthogonalLoop=1;jettySize=auto;html=1;" parent="xbe-5ZWVzaZNOsKrhAvo-1" source="xbe-5ZWVzaZNOsKrhAvo-4" target="xbe-5ZWVzaZNOsKrhAvo-6" edge="1">
                    &#xa;
                    <mxGeometry relative="1" as="geometry">
                        &#xa;
                        <mxPoint x="400" y="319.9999999999999" as="targetPoint"/>
                        &#xa;
                    </mxGeometry>
                    &#xa;
                </mxCell>
                &#xa;
                <mxCell id="xbe-5ZWVzaZNOsKrhAvo-8" value="" style="edgeStyle=none;rounded=0;orthogonalLoop=1;jettySize=auto;html=1;" parent="xbe-5ZWVzaZNOsKrhAvo-1" source="xbe-5ZWVzaZNOsKrhAvo-4" target="xbe-5ZWVzaZNOsKrhAvo-7" edge="1">
                    &#xa;
                    <mxGeometry relative="1" as="geometry"/>
                    &#xa;
                </mxCell>
                &#xa;
                <mxCell id="8R4h5iCFwvrGXfU4AGDP-11" value="" style="edgeStyle=none;rounded=0;orthogonalLoop=1;jettySize=auto;html=1;" parent="xbe-5ZWVzaZNOsKrhAvo-1" source="xbe-5ZWVzaZNOsKrhAvo-4" target="8R4h5iCFwvrGXfU4AGDP-10" edge="1">
                    &#xa;
                    <mxGeometry relative="1" as="geometry"/>
                    &#xa;
                </mxCell>
                &#xa;
                <mxCell id="xbe-5ZWVzaZNOsKrhAvo-4" value="Type" style="ellipse;whiteSpace=wrap;html=1;" parent="xbe-5ZWVzaZNOsKrhAvo-1" vertex="1">
                    &#xa;
                    <mxGeometry x="570" y="309.9999999999999" width="120" height="80" as="geometry"/>
                    &#xa;
                </mxCell>
                &#xa;
                <mxCell id="xbe-5ZWVzaZNOsKrhAvo-6" value="Risk" style="ellipse;whiteSpace=wrap;html=1;" parent="xbe-5ZWVzaZNOsKrhAvo-1" vertex="1">
                    &#xa;
                    <mxGeometry x="300" y="359.9999999999999" width="120" height="80" as="geometry"/>
                    &#xa;
                </mxCell>
                &#xa;
                <mxCell id="8R4h5iCFwvrGXfU4AGDP-12" style="edgeStyle=none;rounded=0;orthogonalLoop=1;jettySize=auto;html=1;" parent="xbe-5ZWVzaZNOsKrhAvo-1" source="xbe-5ZWVzaZNOsKrhAvo-7" target="8R4h5iCFwvrGXfU4AGDP-13" edge="1">
                    &#xa;
                    <mxGeometry relative="1" as="geometry">
                        &#xa;
                        <mxPoint x="570" y="590" as="targetPoint"/>
                        &#xa;
                    </mxGeometry>
                    &#xa;
                </mxCell>
                &#xa;
                <mxCell id="8R4h5iCFwvrGXfU4AGDP-15" value="" style="edgeStyle=none;rounded=0;orthogonalLoop=1;jettySize=auto;html=1;" parent="xbe-5ZWVzaZNOsKrhAvo-1" source="xbe-5ZWVzaZNOsKrhAvo-7" target="8R4h5iCFwvrGXfU4AGDP-13" edge="1">
                    &#xa;
                    <mxGeometry relative="1" as="geometry"/>
                    &#xa;
                </mxCell>
                &#xa;
                <mxCell id="8R4h5iCFwvrGXfU4AGDP-17" value="" style="edgeStyle=none;rounded=0;orthogonalLoop=1;jettySize=auto;html=1;" parent="xbe-5ZWVzaZNOsKrhAvo-1" source="xbe-5ZWVzaZNOsKrhAvo-7" target="8R4h5iCFwvrGXfU4AGDP-16" edge="1">
                    &#xa;
                    <mxGeometry relative="1" as="geometry"/>
                    &#xa;
                </mxCell>
                &#xa;
                <mxCell id="xbe-5ZWVzaZNOsKrhAvo-7" value="Profit %" style="ellipse;whiteSpace=wrap;html=1;" parent="xbe-5ZWVzaZNOsKrhAvo-1" vertex="1">
                    &#xa;
                    <mxGeometry x="420" y="490" width="120" height="80" as="geometry"/>
                    &#xa;
                </mxCell>
                &#xa;
                <mxCell id="8R4h5iCFwvrGXfU4AGDP-0" value="Fund: 5000" style="text;html=1;strokeColor=none;fillColor=none;align=center;verticalAlign=middle;whiteSpace=wrap;rounded=0;" parent="xbe-5ZWVzaZNOsKrhAvo-1" vertex="1">
                    &#xa;
                    <mxGeometry x="980" y="40" width="110" height="20" as="geometry"/>
                    &#xa;
                </mxCell>
                &#xa;
                <mxCell id="8R4h5iCFwvrGXfU4AGDP-1" value="Invest/Month: 500" style="text;html=1;strokeColor=none;fillColor=none;align=center;verticalAlign=middle;whiteSpace=wrap;rounded=0;" parent="xbe-5ZWVzaZNOsKrhAvo-1" vertex="1">
                    &#xa;
                    <mxGeometry x="980" y="70" width="110" height="20" as="geometry"/>
                    &#xa;
                </mxCell>
                &#xa;
                <mxCell id="8R4h5iCFwvrGXfU4AGDP-2" value="Risk: 8" style="text;html=1;strokeColor=none;fillColor=none;align=center;verticalAlign=middle;whiteSpace=wrap;rounded=0;" parent="xbe-5ZWVzaZNOsKrhAvo-1" vertex="1">
                    &#xa;
                    <mxGeometry x="110" y="30" width="110" height="20" as="geometry"/>
                    &#xa;
                </mxCell>
                &#xa;
                <mxCell id="8R4h5iCFwvrGXfU4AGDP-3" value="Growth: 10%" style="text;html=1;strokeColor=none;fillColor=none;align=center;verticalAlign=middle;whiteSpace=wrap;rounded=0;" parent="xbe-5ZWVzaZNOsKrhAvo-1" vertex="1">
                    &#xa;
                    <mxGeometry x="110" y="95" width="110" height="20" as="geometry"/>
                    &#xa;
                </mxCell>
                &#xa;
                <mxCell id="8R4h5iCFwvrGXfU4AGDP-4" value="Dividen: False" style="text;html=1;strokeColor=none;fillColor=none;align=center;verticalAlign=middle;whiteSpace=wrap;rounded=0;" parent="xbe-5ZWVzaZNOsKrhAvo-1" vertex="1">
                    &#xa;
                    <mxGeometry x="980" y="100" width="110" height="20" as="geometry"/>
                    &#xa;
                </mxCell>
                &#xa;
                <mxCell id="8R4h5iCFwvrGXfU4AGDP-5" value="Lost: 5 %" style="text;html=1;strokeColor=none;fillColor=none;align=center;verticalAlign=middle;whiteSpace=wrap;rounded=0;" parent="xbe-5ZWVzaZNOsKrhAvo-1" vertex="1">
                    &#xa;
                    <mxGeometry x="110" y="65" width="110" height="20" as="geometry"/>
                    &#xa;
                </mxCell>
                &#xa;
                <mxCell id="8R4h5iCFwvrGXfU4AGDP-7" style="edgeStyle=none;rounded=0;orthogonalLoop=1;jettySize=auto;html=1;exitX=0;exitY=0.5;exitDx=0;exitDy=0;" parent="xbe-5ZWVzaZNOsKrhAvo-1" edge="1">
                    &#xa;
                    <mxGeometry relative="1" as="geometry">
                        &#xa;
                        <mxPoint x="970" y="110" as="sourcePoint"/>
                        &#xa;
                        <mxPoint x="970" y="110" as="targetPoint"/>
                        &#xa;
                    </mxGeometry>
                    &#xa;
                </mxCell>
                &#xa;
                <mxCell id="8R4h5iCFwvrGXfU4AGDP-19" value="" style="edgeStyle=none;rounded=0;orthogonalLoop=1;jettySize=auto;html=1;" parent="xbe-5ZWVzaZNOsKrhAvo-1" source="8R4h5iCFwvrGXfU4AGDP-10" target="8R4h5iCFwvrGXfU4AGDP-18" edge="1">
                    &#xa;
                    <mxGeometry relative="1" as="geometry"/>
                    &#xa;
                </mxCell>
                &#xa;
                <mxCell id="8R4h5iCFwvrGXfU4AGDP-21" value="" style="edgeStyle=none;rounded=0;orthogonalLoop=1;jettySize=auto;html=1;" parent="xbe-5ZWVzaZNOsKrhAvo-1" source="8R4h5iCFwvrGXfU4AGDP-10" target="8R4h5iCFwvrGXfU4AGDP-20" edge="1">
                    &#xa;
                    <mxGeometry relative="1" as="geometry"/>
                    &#xa;
                </mxCell>
                &#xa;
                <mxCell id="8R4h5iCFwvrGXfU4AGDP-10" value="Loss" style="ellipse;whiteSpace=wrap;html=1;" parent="xbe-5ZWVzaZNOsKrhAvo-1" vertex="1">
                    &#xa;
                    <mxGeometry x="660" y="499.9999999999999" width="120" height="80" as="geometry"/>
                    &#xa;
                </mxCell>
                &#xa;
                <mxCell id="8R4h5iCFwvrGXfU4AGDP-13" value="High" style="ellipse;whiteSpace=wrap;html=1;" parent="xbe-5ZWVzaZNOsKrhAvo-1" vertex="1">
                    &#xa;
                    <mxGeometry x="440" y="610" width="120" height="80" as="geometry"/>
                    &#xa;
                </mxCell>
                &#xa;
                <mxCell id="8R4h5iCFwvrGXfU4AGDP-16" value="Low" style="ellipse;whiteSpace=wrap;html=1;" parent="xbe-5ZWVzaZNOsKrhAvo-1" vertex="1">
                    &#xa;
                    <mxGeometry x="250" y="550" width="120" height="80" as="geometry"/>
                    &#xa;
                </mxCell>
                &#xa;
                <mxCell id="8R4h5iCFwvrGXfU4AGDP-18" value="High" style="ellipse;whiteSpace=wrap;html=1;" parent="xbe-5ZWVzaZNOsKrhAvo-1" vertex="1">
                    &#xa;
                    <mxGeometry x="650" y="619.9999999999999" width="120" height="80" as="geometry"/>
                    &#xa;
                </mxCell>
                &#xa;
                <mxCell id="8R4h5iCFwvrGXfU4AGDP-20" value="Low" style="ellipse;whiteSpace=wrap;html=1;" parent="xbe-5ZWVzaZNOsKrhAvo-1" vertex="1">
                    &#xa;
                    <mxGeometry x="830" y="549.9999999999999" width="120" height="80" as="geometry"/>
                    &#xa;
                </mxCell>
                &#xa;
            </root>
            &#xa;
        </mxGraphModel>
        &#xa;
    </diagram>
    <diagram id="fmkTv1h6llubL_gdTXZs" name="ER">
        &#xa;
        <mxGraphModel dx="672" dy="478" grid="1" gridSize="10" guides="1" tooltips="1" connect="1" arrows="1" fold="1" page="1" pageScale="1" pageWidth="1169" pageHeight="827" math="0" shadow="0">
            &#xa;
            <root>
                &#xa;
                <mxCell id="9832DcikIs31w9ILXbVd-0"/>
                &#xa;
                <mxCell id="9832DcikIs31w9ILXbVd-1" parent="9832DcikIs31w9ILXbVd-0"/>
                &#xa;
                <mxCell id="9832DcikIs31w9ILXbVd-2" value="Asset" style="shape=table;startSize=30;container=1;collapsible=1;childLayout=tableLayout;fixedRows=1;rowLines=0;fontStyle=1;align=center;resizeLast=1;" parent="9832DcikIs31w9ILXbVd-1" vertex="1">
                    &#xa;
                    <mxGeometry x="40" y="60" width="180" height="160" as="geometry"/>
                    &#xa;
                </mxCell>
                &#xa;
                <mxCell id="9832DcikIs31w9ILXbVd-3" value="" style="shape=partialRectangle;collapsible=0;dropTarget=0;pointerEvents=0;fillColor=none;top=0;left=0;bottom=1;right=0;points=[[0,0.5],[1,0.5]];portConstraint=eastwest;" parent="9832DcikIs31w9ILXbVd-2" vertex="1">
                    &#xa;
                    <mxGeometry y="30" width="180" height="30" as="geometry"/>
                    &#xa;
                </mxCell>
                &#xa;
                <mxCell id="9832DcikIs31w9ILXbVd-4" value="PK" style="shape=partialRectangle;connectable=0;fillColor=none;top=0;left=0;bottom=0;right=0;fontStyle=1;overflow=hidden;" parent="9832DcikIs31w9ILXbVd-3" vertex="1">
                    &#xa;
                    <mxGeometry width="30" height="30" as="geometry"/>
                    &#xa;
                </mxCell>
                &#xa;
                <mxCell id="9832DcikIs31w9ILXbVd-5" value="AssetID" style="shape=partialRectangle;connectable=0;fillColor=none;top=0;left=0;bottom=0;right=0;align=left;spacingLeft=6;fontStyle=5;overflow=hidden;" parent="9832DcikIs31w9ILXbVd-3" vertex="1">
                    &#xa;
                    <mxGeometry x="30" width="150" height="30" as="geometry"/>
                    &#xa;
                </mxCell>
                &#xa;
                <mxCell id="9832DcikIs31w9ILXbVd-6" value="" style="shape=partialRectangle;collapsible=0;dropTarget=0;pointerEvents=0;fillColor=none;top=0;left=0;bottom=0;right=0;points=[[0,0.5],[1,0.5]];portConstraint=eastwest;" parent="9832DcikIs31w9ILXbVd-2" vertex="1">
                    &#xa;
                    <mxGeometry y="60" width="180" height="30" as="geometry"/>
                    &#xa;
                </mxCell>
                &#xa;
                <mxCell id="9832DcikIs31w9ILXbVd-7" value="" style="shape=partialRectangle;connectable=0;fillColor=none;top=0;left=0;bottom=0;right=0;editable=1;overflow=hidden;" parent="9832DcikIs31w9ILXbVd-6" vertex="1">
                    &#xa;
                    <mxGeometry width="30" height="30" as="geometry"/>
                    &#xa;
                </mxCell>
                &#xa;
                <mxCell id="9832DcikIs31w9ILXbVd-8" value="AssetType" style="shape=partialRectangle;connectable=0;fillColor=none;top=0;left=0;bottom=0;right=0;align=left;spacingLeft=6;overflow=hidden;" parent="9832DcikIs31w9ILXbVd-6" vertex="1">
                    &#xa;
                    <mxGeometry x="30" width="150" height="30" as="geometry"/>
                    &#xa;
                </mxCell>
                &#xa;
                <mxCell id="9832DcikIs31w9ILXbVd-9" value="" style="shape=partialRectangle;collapsible=0;dropTarget=0;pointerEvents=0;fillColor=none;top=0;left=0;bottom=0;right=0;points=[[0,0.5],[1,0.5]];portConstraint=eastwest;" parent="9832DcikIs31w9ILXbVd-2" vertex="1">
                    &#xa;
                    <mxGeometry y="90" width="180" height="30" as="geometry"/>
                    &#xa;
                </mxCell>
                &#xa;
                <mxCell id="9832DcikIs31w9ILXbVd-10" value="" style="shape=partialRectangle;connectable=0;fillColor=none;top=0;left=0;bottom=0;right=0;editable=1;overflow=hidden;" parent="9832DcikIs31w9ILXbVd-9" vertex="1">
                    &#xa;
                    <mxGeometry width="30" height="30" as="geometry"/>
                    &#xa;
                </mxCell>
                &#xa;
                <mxCell id="9832DcikIs31w9ILXbVd-11" value="HoldRange" style="shape=partialRectangle;connectable=0;fillColor=none;top=0;left=0;bottom=0;right=0;align=left;spacingLeft=6;overflow=hidden;" parent="9832DcikIs31w9ILXbVd-9" vertex="1">
                    &#xa;
                    <mxGeometry x="30" width="150" height="30" as="geometry"/>
                    &#xa;
                </mxCell>
                &#xa;
                <mxCell id="9832DcikIs31w9ILXbVd-12" value="" style="shape=partialRectangle;collapsible=0;dropTarget=0;pointerEvents=0;fillColor=none;top=0;left=0;bottom=0;right=0;points=[[0,0.5],[1,0.5]];portConstraint=eastwest;" parent="9832DcikIs31w9ILXbVd-2" vertex="1">
                    &#xa;
                    <mxGeometry y="120" width="180" height="30" as="geometry"/>
                    &#xa;
                </mxCell>
                &#xa;
                <mxCell id="9832DcikIs31w9ILXbVd-13" value="" style="shape=partialRectangle;connectable=0;fillColor=none;top=0;left=0;bottom=0;right=0;editable=1;overflow=hidden;" parent="9832DcikIs31w9ILXbVd-12" vertex="1">
                    &#xa;
                    <mxGeometry width="30" height="30" as="geometry"/>
                    &#xa;
                </mxCell>
                &#xa;
                <mxCell id="9832DcikIs31w9ILXbVd-14" value="Row 3" style="shape=partialRectangle;connectable=0;fillColor=none;top=0;left=0;bottom=0;right=0;align=left;spacingLeft=6;overflow=hidden;" parent="9832DcikIs31w9ILXbVd-12" vertex="1">
                    &#xa;
                    <mxGeometry x="30" width="150" height="30" as="geometry"/>
                    &#xa;
                </mxCell>
                &#xa;
            </root>
            &#xa;
        </mxGraphModel>
        &#xa;
    </diagram>
</mxfile>